<?xml version="1.0" encoding="utf-8"?>
<!-- Generator: Adobe Illustrator 20.1.0, SVG Export Plug-In . SVG Version: 6.00 Build 0)  -->
<svg version="1.1" id="Layer_1" xmlns="http://www.w3.org/2000/svg" xmlns:xlink="http://www.w3.org/1999/xlink" x="0px" y="0px"
	 viewBox="0 0 250.3 121.4" style="enable-background:new 0 0 250.3 121.4;" xml:space="preserve">
<style type="text/css">
	.st0{fill:#E5BD0A;stroke:#4B3114;stroke-miterlimit:10;}
	.st1{fill:#FC0500;stroke:#4B3114;stroke-miterlimit:10;}
	.st2{fill:#4B3114;}
	.st3{font-family:'GillSansMT';}
	.st4{font-size:22px;}
</style>
<g>
	<g>
		<path class="st0" d="M208.3,53.4c-2.3,0-4.1-1.8-4.1-4.1v-1.4h-46.3c-0.8,1-1.5,1.9-2.2,2.7h46c0.5,2.7,2.6,4.8,5.3,5.3v26.7
			c-2.7,0.5-4.8,2.6-5.3,5.3H51.3c-0.5-2.7-2.6-4.8-5.3-5.3V56c2.7-0.5,4.8-2.6,5.3-5.3h42.3c-0.2-0.5-0.3-1.1-0.3-1.6
			c0-0.4,0-0.7,0.1-1.1H48.8v1.4c0,2.3-1.8,4.1-4.1,4.1h-1.4v31.8h1.4c2.3,0,4.1,1.8,4.1,4.1v1.4h154.1h1.4v-1.4
			c0-2.3,1.8-4.1,4.1-4.1h1.4V53.4H208.3z"/>
	</g>
	<g>
		<g>
			<path class="st0" d="M135.6,34.1c2.7,1.6,4.9,3.8,6.5,6.5c1.6,2.7,2.4,5.7,2.4,8.8l-1.4,0c0-2.9-0.8-5.7-2.2-8.1
				c-1.4-2.5-3.5-4.5-6-6L135.6,34.1z"/>
			<path class="st0" d="M118,35.3c-5,3-8,8.4-8.1,14.2l-1.4,0c0-6.3,3.4-12.2,8.8-15.4L118,35.3z"/>
			<path class="st0" d="M117.6,33.9c5.4-3.1,12.2-3.1,17.7,0l-0.7,1.2c-5.1-2.8-11.3-2.8-16.3,0L117.6,33.9z"/>
			<path class="st0" d="M118.5,35.4c4.9-2.8,11-2.8,15.9,0l-7.9,13.8L118.5,35.4z"/>
			<path class="st0" d="M134.7,35.6c2.4,1.4,4.4,3.4,5.8,5.8c1.4,2.4,2.2,5.2,2.2,8l-15.9,0L134.7,35.6z"/>
			<path class="st0" d="M126.2,49.4l-15.9,0c0-5.7,3.1-11,7.9-13.9L126.2,49.4z"/>
		</g>
		<ellipse transform="matrix(0.9576 -0.2882 0.2882 0.9576 -7.8864 40.61)" class="st1" cx="134" cy="47.1" rx="1.3" ry="1.3"/>
		<ellipse transform="matrix(0.9575 -0.2883 0.2883 0.9575 -6.2208 40.6406)" class="st1" cx="134.9" cy="41.4" rx="1.3" ry="1.3"/>
		<ellipse transform="matrix(0.9574 -0.2888 0.2888 0.9574 -7.2674 38.4886)" class="st1" cx="126.8" cy="43.9" rx="1.3" ry="1.3"/>
		<ellipse transform="matrix(0.9575 -0.2884 0.2884 0.9575 -5.6614 37.3796)" class="st1" cx="124" cy="37.9" rx="1.3" ry="1.3"/>
		<ellipse transform="matrix(0.9575 -0.2884 0.2884 0.9575 -8.6025 34.6704)" class="st1" cx="113.4" cy="46.5" rx="1.3" ry="1.3"/>
		<ellipse transform="matrix(0.9574 -0.2888 0.2888 0.9574 -7.897 36.5704)" class="st1" cx="120" cy="45" rx="1.3" ry="1.3"/>
	</g>
	<text transform="matrix(1 0 0 1 47.4669 75.4721)" class="st2 st3 st4">ORDER ONLINE</text>
</g>
</svg>
