<?xml version="1.0" encoding="utf-8"?>
<!-- Generator: Adobe Illustrator 20.1.0, SVG Export Plug-In . SVG Version: 6.00 Build 0)  -->
<svg version="1.1" id="Layer_1" xmlns="http://www.w3.org/2000/svg" xmlns:xlink="http://www.w3.org/1999/xlink" x="0px" y="0px"
	 viewBox="0 0 250.3 121.4" style="enable-background:new 0 0 250.3 121.4;" xml:space="preserve">
<style type="text/css">
	.st0{fill:none;stroke:#4B3114;stroke-miterlimit:10;}
	.st1{fill:#4B3114;}
	.st2{font-family:'GillSansMT';}
	.st3{font-size:22px;}
</style>
<g>
	<g>
		<path class="st0" d="M207,53.5c-2.3,0-4.1-1.8-4.1-4.1V48h-46.3c-0.8,1-1.5,1.9-2.2,2.7h46c0.5,2.7,2.6,4.8,5.3,5.3v26.7
			c-2.7,0.5-4.8,2.6-5.3,5.3H50c-0.5-2.7-2.6-4.8-5.3-5.3V56c2.7-0.5,4.8-2.6,5.3-5.3h42.3c-0.2-0.5-0.3-1.1-0.3-1.6
			c0-0.4,0-0.7,0.1-1.1H47.4v1.4c0,2.3-1.8,4.1-4.1,4.1H42v31.8h1.4c2.3,0,4.1,1.8,4.1,4.1v1.4h154.1h1.4v-1.4
			c0-2.3,1.8-4.1,4.1-4.1h1.4V53.5H207z"/>
	</g>
	<g>
		<g>
			<path class="st0" d="M134.2,34.1c2.7,1.6,4.9,3.8,6.5,6.5c1.6,2.7,2.4,5.7,2.4,8.8l-1.4,0c0-2.9-0.8-5.7-2.2-8.1
				c-1.4-2.5-3.5-4.5-6-6L134.2,34.1z"/>
			<path class="st0" d="M116.6,35.4c-5,3-8,8.4-8.1,14.2l-1.4,0c0-6.3,3.4-12.2,8.8-15.4L116.6,35.4z"/>
			<path class="st0" d="M116.3,34c5.4-3.1,12.2-3.1,17.7,0l-0.7,1.2c-5.1-2.8-11.3-2.8-16.3,0L116.3,34z"/>
			<path class="st0" d="M117.1,35.5c4.9-2.8,11-2.8,15.9,0l-7.9,13.8L117.1,35.5z"/>
			<path class="st0" d="M133.4,35.6c2.4,1.4,4.4,3.4,5.8,5.8c1.4,2.4,2.2,5.2,2.2,8l-15.9,0L133.4,35.6z"/>
			<path class="st0" d="M124.8,49.5l-15.9,0c0-5.7,3.1-11,7.9-13.9L124.8,49.5z"/>
		</g>
		<ellipse transform="matrix(0.9576 -0.2882 0.2882 0.9576 -7.9619 40.2244)" class="st0" cx="132.6" cy="47.1" rx="1.3" ry="1.3"/>
		<ellipse transform="matrix(0.9575 -0.2883 0.2883 0.9575 -6.2963 40.2548)" class="st0" cx="133.5" cy="41.5" rx="1.3" ry="1.3"/>
		<ellipse transform="matrix(0.9574 -0.2888 0.2888 0.9574 -7.3432 38.1022)" class="st0" cx="125.4" cy="43.9" rx="1.3" ry="1.3"/>
		<ellipse transform="matrix(0.9575 -0.2884 0.2884 0.9575 -5.7369 36.9937)" class="st0" cx="122.7" cy="38" rx="1.3" ry="1.3"/>
		<ellipse transform="matrix(0.9575 -0.2884 0.2884 0.9575 -8.678 34.2846)" class="st0" cx="112" cy="46.6" rx="1.3" ry="1.3"/>
		<ellipse transform="matrix(0.9574 -0.2888 0.2888 0.9574 -7.9728 36.184)" class="st0" cx="118.6" cy="45.1" rx="1.3" ry="1.3"/>
	</g>
	<text transform="matrix(1 0 0 1 46.1194 75.5357)" class="st1 st2 st3">ORDER ONLINE</text>
</g>
</svg>
