<?xml version="1.0" encoding="utf-8"?>
<!-- Generator: Adobe Illustrator 20.1.0, SVG Export Plug-In . SVG Version: 6.00 Build 0)  -->
<svg version="1.1" id="Layer_1" xmlns="http://www.w3.org/2000/svg" xmlns:xlink="http://www.w3.org/1999/xlink" x="0px" y="0px"
	 viewBox="0 0 206 190" style="enable-background:new 0 0 206 190;" xml:space="preserve">
<style type="text/css">
	.st0{fill:none;stroke:#FFFFFF;stroke-width:3;stroke-miterlimit:10;}
</style>
<g id="Layer_2">
</g>
<path class="st0" d="M144.2,123.3c0,7.9-6.4,14.3-14.3,14.3h-55c-7.9,0-14.3-6.4-14.3-14.3v-55C60.6,60.4,67,54,74.9,54h55
	c7.9,0,14.3,6.4,14.3,14.3V123.3z"/>
<path class="st0" d="M117.9,137.6v-32.1h10.8l1.6-12.5h-12.4v-8c0-3.6,1-6.1,6.2-6.1h6.6V67.7c-1.1-0.2-5.1-0.5-9.7-0.5
	c-9.5,0-16.1,5.8-16.1,16.5V93H94.2v12.5H105v32.1H117.9L117.9,137.6z"/>
</svg>
