<?xml version="1.0" encoding="utf-8"?>
<!-- Generator: Adobe Illustrator 20.1.0, SVG Export Plug-In . SVG Version: 6.00 Build 0)  -->
<svg version="1.1" id="Layer_1" xmlns="http://www.w3.org/2000/svg" xmlns:xlink="http://www.w3.org/1999/xlink" x="0px" y="0px"
	 viewBox="0 0 206 190" style="enable-background:new 0 0 206 190;" xml:space="preserve">
<style type="text/css">
	.st0{fill:#FFFFFF;}
</style>
<g>
	<g>
		<path class="st0" d="M122.1,142.5H83.4c-17.2,0-31.1-14-31.1-31.1V77.3c0-17.2,14-31.1,31.1-31.1h38.7c17.2,0,31.1,14,31.1,31.1
			v34.1C153.3,128.5,139.3,142.5,122.1,142.5z M83.4,53.1c-13.4,0-24.2,10.9-24.2,24.2v34.1c0,13.4,10.9,24.2,24.2,24.2h38.7
			c13.4,0,24.2-10.9,24.2-24.2V77.3c0-13.4-10.9-24.2-24.2-24.2H83.4z"/>
	</g>
	<g>
		<path class="st0" d="M102.8,122c-15.3,0-27.7-12.4-27.7-27.7c0-15.3,12.4-27.7,27.7-27.7c15.3,0,27.7,12.4,27.7,27.7
			C130.5,109.6,118.1,122,102.8,122z M102.8,73.5C91.3,73.5,82,82.9,82,94.3c0,11.5,9.3,20.8,20.8,20.8c11.5,0,20.8-9.3,20.8-20.8
			C123.6,82.9,114.2,73.5,102.8,73.5z"/>
	</g>
	<g>
		<circle class="st0" cx="130.1" cy="67.5" r="5.8"/>
	</g>
</g>
</svg>
