<?xml version="1.0" encoding="utf-8"?>
<!-- Generator: Adobe Illustrator 20.1.0, SVG Export Plug-In . SVG Version: 6.00 Build 0)  -->
<svg version="1.1" id="Layer_1" xmlns="http://www.w3.org/2000/svg" xmlns:xlink="http://www.w3.org/1999/xlink" x="0px" y="0px"
	 viewBox="0 0 206 190" style="enable-background:new 0 0 206 190;" xml:space="preserve">
<style type="text/css">
	.st0{fill:#FDEEF2;}
	.st1{fill:#2E9626;}
	.st2{fill:#4DDB3E;}
</style>
<circle class="st0" cx="103.7" cy="94.1" r="45.5"/>
<g id="Layer_2">
</g>
<g id="Layer_1_1_">
	<g>
		<g>
			<path class="st1" d="M72.4,88.8C72.4,88.8,72.4,88.7,72.4,88.8C72.3,88.7,72.3,88.8,72.4,88.8L72.4,88.8z"/>
		</g>
	</g>
	<g>
		<g>
			<path class="st1" d="M73,94c1.6,0,1.6-2.5,0-2.5C71.4,91.6,71.4,94,73,94L73,94z"/>
		</g>
	</g>
	<g>
		<g>
			<path class="st1" d="M72.5,85.7c2.1,0,2.1-3.3,0-3.3C70.4,82.4,70.4,85.7,72.5,85.7L72.5,85.7z"/>
		</g>
	</g>
	<g>
		<g>
			<path class="st1" d="M65.4,91.1c1,0,2-0.9,1.9-1.9c0-1-0.8-1.9-1.9-1.9c-1,0-2,0.9-1.9,1.9C63.5,90.2,64.3,91.1,65.4,91.1
				L65.4,91.1z"/>
		</g>
	</g>
	<g>
		<g>
			<path class="st1" d="M69.7,89.3c1,0,1-1.5,0-1.5S68.7,89.3,69.7,89.3L69.7,89.3z"/>
		</g>
	</g>
	<g>
		<g>
			<path class="st1" d="M71.2,77.2c1.1,0,2.2-1,2.2-2.2c-0.1-1.2-1-2.2-2.2-2.2c-1.1,0-2.2,1-2.2,2.2S69.9,77.2,71.2,77.2L71.2,77.2
				z"/>
		</g>
	</g>
	<g>
		<g>
			<path class="st1" d="M80.6,64.6c1.2,0,2.3-1,2.3-2.3c-0.1-1.2-1-2.3-2.3-2.3c-1.2,0-2.3,1-2.3,2.3C78.4,63.6,79.4,64.6,80.6,64.6
				L80.6,64.6z"/>
		</g>
	</g>
	<g>
		<g>
			<path class="st1" d="M92.1,66.6c1.2,0,2.4-1.1,2.4-2.4c-0.1-1.3-1-2.4-2.4-2.4c-1.2,0-2.4,1.1-2.4,2.4
				C89.8,65.5,90.7,66.6,92.1,66.6L92.1,66.6z"/>
		</g>
	</g>
	<g>
		<g>
			<path class="st1" d="M95,57c1,0,1.9-0.9,1.9-1.9s-0.8-1.9-1.9-1.9c-1,0-1.9,0.9-1.9,1.9C93.1,56.2,93.9,57,95,57L95,57z"/>
		</g>
	</g>
	<g>
		<g>
			<path class="st1" d="M103.5,73c1.1,0,2.2-1,2.2-2.2c-0.1-1.2-1-2.2-2.2-2.2c-1.1,0-2.2,1-2.2,2.2C101.4,72,102.3,73,103.5,73
				L103.5,73z"/>
		</g>
	</g>
	<g>
		<g>
			<path class="st1" d="M104.3,90.2c1,0,1.9-0.9,1.9-1.9s-0.8-1.9-1.9-1.9c-1,0-1.9,0.9-1.9,1.9C102.5,89.3,103.2,90.2,104.3,90.2
				L104.3,90.2z"/>
		</g>
	</g>
	<g>
		<g>
			<path class="st1" d="M99,81.6c1.1,0,2.2-1,2.1-2.1s-0.9-2.1-2.1-2.1c-1.1,0-2.2,1-2.1,2.1C97,80.7,97.8,81.6,99,81.6L99,81.6z"/>
		</g>
	</g>
	<g>
		<g>
			<path class="st1" d="M97.5,94.6c1,0,1.9-0.8,1.8-1.8c0-1-0.8-1.8-1.8-1.8s-1.9,0.8-1.8,1.8C95.7,93.8,96.5,94.6,97.5,94.6
				L97.5,94.6z"/>
		</g>
	</g>
	<g>
		<g>
			<path class="st1" d="M109.3,100.4L109.3,100.4c0.1-0.8,0.1-1.6-0.5-2.1c-0.4-0.4-0.9-0.6-1.5-0.6c-0.5,0-1.1,0.2-1.5,0.6
				c-0.6,0.6-0.6,1.2-0.5,2v0.1c0.1,0.8,1.2,1.5,2,1.5C108.1,101.9,109.1,101.3,109.3,100.4L109.3,100.4z"/>
		</g>
	</g>
	<g>
		<g>
			<path class="st1" d="M78.4,117.6c1.1,0,2.1-1,2.1-2.1c-0.1-1.1-0.9-2.1-2.1-2.1c-1.1,0-2.1,1-2.1,2.1
				C76.4,116.7,77.2,117.6,78.4,117.6L78.4,117.6z"/>
		</g>
	</g>
	<g>
		<g>
			<path class="st1" d="M75.5,105.8c1.1,0,2.1-0.9,2-2c0-1.1-0.9-2-2-2s-2.1,0.9-2,2C73.5,104.9,74.4,105.8,75.5,105.8L75.5,105.8z"
				/>
		</g>
	</g>
	<g>
		<g>
			<path class="st1" d="M65.4,102.8c1.1,0,2.2-1,2.1-2.1s-0.9-2.1-2.1-2.1c-1.1,0-2.2,1-2.1,2.1C63.4,101.8,64.2,102.8,65.4,102.8
				L65.4,102.8z"/>
		</g>
	</g>
	<g>
		<g>
			<path class="st1" d="M70.2,111.4C70.1,111.4,70.1,111.4,70.2,111.4c-0.6-0.6-1.6-0.6-2.2-0.1c0,0,0,0.1-0.1,0.1
				c-0.9,0.9-0.3,2.8,1.1,2.7C70.4,114.1,71.2,112.4,70.2,111.4L70.2,111.4z"/>
		</g>
	</g>
	<g>
		<g>
			<path class="st1" d="M86.2,110.6c2.9,0,2.9-4.6,0-4.6C83.3,106,83.3,110.6,86.2,110.6L86.2,110.6z"/>
		</g>
	</g>
	<g>
		<g>
			<path class="st1" d="M91.5,123.7c0.1,0,0.1,0,0.2,0c1.6,0,1.6-2.5,0-2.5c-0.1,0-0.1,0-0.2,0C89.9,121.2,89.9,123.7,91.5,123.7
				L91.5,123.7z"/>
		</g>
	</g>
	<g>
		<g>
			<path class="st1" d="M88.7,117.5c0-0.1,0-0.1,0-0.2c0-0.3-0.2-0.5-0.5-0.5c-0.1,0-0.1,0-0.2,0c-0.6-0.1-0.8,0.7-0.5,1.1
				C87.9,118.3,88.7,118.1,88.7,117.5L88.7,117.5z"/>
		</g>
	</g>
	<g>
		<g>
			<path class="st1" d="M85.4,125.3L85.4,125.3c0.9-0.6,1.3-1.6,0.9-2.5c-0.4-0.9-1.3-1.4-2.3-1.1c-0.1,0-0.1,0-0.2,0
				c-1.2,0.3-1.7,1.6-1.3,2.7C83,125.4,84.4,126,85.4,125.3L85.4,125.3z"/>
		</g>
	</g>
	<g>
		<g>
			<path class="st1" d="M76.9,124.9c1.6,0,1.6-2.5,0-2.5S75.3,124.9,76.9,124.9L76.9,124.9z"/>
		</g>
	</g>
	<g>
		<g>
			<path class="st1" d="M89.7,131.8c2.3,0,2.3-3.6,0-3.6C87.4,128.2,87.4,131.8,89.7,131.8L89.7,131.8z"/>
		</g>
	</g>
	<g>
		<g>
			<path class="st1" d="M98.3,121.2c1,0,2-0.9,1.9-1.9c0-1-0.8-1.9-1.9-1.9c-1,0-2,0.9-1.9,1.9C96.4,120.3,97.2,121.2,98.3,121.2
				L98.3,121.2z"/>
		</g>
	</g>
	<g>
		<g>
			<path class="st1" d="M93.6,113.6c0.8,0,1.6-0.7,1.5-1.5c0-0.8-0.7-1.5-1.5-1.5s-1.6,0.7-1.5,1.5
				C92.1,112.9,92.7,113.6,93.6,113.6L93.6,113.6z"/>
		</g>
	</g>
	<g>
		<g>
			<path class="st1" d="M107.8,123.1c2.1,0,2.1-3.3,0-3.3C105.6,119.8,105.6,123.1,107.8,123.1L107.8,123.1z"/>
		</g>
	</g>
	<g>
		<g>
			<path class="st1" d="M99,129.1c0.9,0,1.7-0.8,1.7-1.7c0-0.9-0.7-1.7-1.7-1.7c-0.9,0-1.7,0.8-1.7,1.7
				C97.4,128.4,98.1,129.1,99,129.1L99,129.1z"/>
		</g>
	</g>
	<g>
		<g>
			<path class="st1" d="M102.8,123.3c0.9,0,0.9-1.4,0-1.4S101.9,123.3,102.8,123.3L102.8,123.3z"/>
		</g>
	</g>
	<g>
		<g>
			<path class="st1" d="M105.6,132.2c1,0,2-0.9,1.9-1.9c0-1-0.8-1.9-1.9-1.9c-1,0-2,0.9-1.9,1.9
				C103.8,131.3,104.6,132.2,105.6,132.2L105.6,132.2z"/>
		</g>
	</g>
	<g>
		<g>
			<path class="st1" d="M97.4,134.3c0.5,0,0.5-0.8,0-0.8S96.9,134.3,97.4,134.3L97.4,134.3z"/>
		</g>
	</g>
	<g>
		<g>
			<path class="st1" d="M96.2,132.2c1.8,0,1.8-2.9,0-2.9C94.3,129.3,94.3,132.2,96.2,132.2L96.2,132.2z"/>
		</g>
	</g>
	<g>
		<g>
			<path class="st1" d="M117.5,124.2C117.4,124.1,117.4,124.1,117.5,124.2c-1.7-0.8-3.3,0.7-2.5,2.4v0.1c0.5,1.1,2.1,1.1,2.8,0.4
				C118.6,126.2,118.5,124.7,117.5,124.2L117.5,124.2z"/>
		</g>
	</g>
	<g>
		<g>
			<path class="st1" d="M112.3,123.7c0.8,0,0.8-1.2,0-1.2S111.5,123.7,112.3,123.7L112.3,123.7z"/>
		</g>
	</g>
	<g>
		<g>
			<path class="st1" d="M109.7,128c0.8,0,1.7-0.7,1.6-1.6c0-0.9-0.7-1.6-1.6-1.6c-0.8,0-1.7,0.7-1.6,1.6
				C108.1,127.3,108.8,128,109.7,128L109.7,128z"/>
		</g>
	</g>
	<g>
		<g>
			<path class="st1" d="M111.8,129.5c0.6,0,0.6-0.9,0-0.9C111.2,128.7,111.2,129.5,111.8,129.5L111.8,129.5z"/>
		</g>
	</g>
	<g>
		<g>
			<path class="st1" d="M110.8,133.6c1.9,0,1.9-3,0-3C108.8,130.6,108.8,133.6,110.8,133.6L110.8,133.6z"/>
		</g>
	</g>
	<g>
		<g>
			<path class="st1" d="M116.9,132.1c1,0,1-1.5,0-1.5S115.9,132.1,116.9,132.1L116.9,132.1z"/>
		</g>
	</g>
	<g>
		<g>
			<path class="st1" d="M114.7,130.6c1.3,0,1.3-2,0-2C113.4,128.5,113.4,130.6,114.7,130.6L114.7,130.6z"/>
		</g>
	</g>
	<g>
		<g>
			<path class="st1" d="M121.8,128.9c0.8,0,1.5-0.7,1.5-1.5s-0.7-1.5-1.5-1.5s-1.5,0.7-1.5,1.5C120.3,128.3,121,128.9,121.8,128.9
				L121.8,128.9z"/>
		</g>
	</g>
	<g>
		<g>
			<path class="st1" d="M120.3,124.1c1.3,0,1.3-2,0-2S119,124.1,120.3,124.1L120.3,124.1z"/>
		</g>
	</g>
	<g>
		<g>
			<path class="st1" d="M115.3,122.2c0.8,0,0.8-1.3,0-1.3C114.4,120.9,114.4,122.2,115.3,122.2L115.3,122.2z"/>
		</g>
	</g>
	<g>
		<g>
			<path class="st1" d="M104,126.7c1.2,0,1.2-1.8,0-1.8C102.8,124.9,102.8,126.7,104,126.7L104,126.7z"/>
		</g>
	</g>
	<g>
		<g>
			<path class="st1" d="M101.1,130.8c0.6,0,0.6-0.9,0-0.9C100.5,129.8,100.5,130.8,101.1,130.8L101.1,130.8z"/>
		</g>
	</g>
	<g>
		<g>
			<path class="st1" d="M100.7,134.5c1.3,0,1.3-2,0-2C99.4,132.5,99.4,134.5,100.7,134.5L100.7,134.5z"/>
		</g>
	</g>
	<g>
		<g>
			<path class="st1" d="M96.9,124.4c1.1,0,1.1-1.8,0-1.8S95.8,124.4,96.9,124.4L96.9,124.4z"/>
		</g>
	</g>
	<g>
		<g>
			<path class="st1" d="M93.6,127.6c0.8,0,1.5-0.7,1.5-1.5s-0.7-1.5-1.5-1.5s-1.5,0.7-1.5,1.5S92.8,127.6,93.6,127.6L93.6,127.6z"/>
		</g>
	</g>
	<g>
		<g>
			<path class="st1" d="M99.8,124.1c0.8,0,0.8-1.2,0-1.2S99,124.1,99.8,124.1L99.8,124.1z"/>
		</g>
	</g>
	<g>
		<g>
			<path class="st1" d="M102.9,119.8c1.8,0,1.8-2.7,0-2.7C101.2,117,101.2,119.8,102.9,119.8L102.9,119.8z"/>
		</g>
	</g>
	<g>
		<g>
			<path class="st1" d="M97.8,115.9c1.3,0,1.3-2,0-2S96.5,115.9,97.8,115.9L97.8,115.9z"/>
		</g>
	</g>
	<g>
		<g>
			<path class="st1" d="M93.1,118c0.8,0,1.4-0.7,1.4-1.4c0-0.8-0.6-1.4-1.4-1.4s-1.4,0.7-1.4,1.4C91.7,117.4,92.4,118,93.1,118
				L93.1,118z"/>
		</g>
	</g>
	<g>
		<g>
			<path class="st1" d="M128.8,87.6c1.7,0,1.7-2.6,0-2.6C127.2,85,127.2,87.6,128.8,87.6L128.8,87.6z"/>
		</g>
	</g>
	<g>
		<g>
			<path class="st1" d="M130,77.3c1,0,2-0.9,1.9-1.9c0-1-0.8-1.9-1.9-1.9c-1,0-2,0.9-1.9,1.9C128.2,76.4,129,77.3,130,77.3L130,77.3
				z"/>
		</g>
	</g>
	<g>
		<g>
			<path class="st1" d="M120.7,75.7c1,0,2.1-0.9,2-2c0-1.1-0.9-2-2-2c-1,0-2.1,0.9-2,2C118.8,74.8,119.6,75.7,120.7,75.7L120.7,75.7
				z"/>
		</g>
	</g>
	<g>
		<g>
			<path class="st1" d="M119.6,65.4c1.1,0,2.2-1,2.1-2.1c-0.1-1.2-0.9-2.1-2.1-2.1c-1.1,0-2.2,1-2.1,2.1
				C117.5,64.5,118.4,65.4,119.6,65.4L119.6,65.4z"/>
		</g>
	</g>
	<g>
		<g>
			<path class="st1" d="M112.7,62.2L112.7,62.2c1.1-0.9,0.6-2.6-0.5-3c-1.2-0.5-2.4,0.4-2.5,1.7V61c0,0.7,0.5,1.3,1.1,1.6
				C111.5,62.9,112.1,62.7,112.7,62.2L112.7,62.2z"/>
		</g>
	</g>
	<g>
		<g>
			<path class="st1" d="M114.4,82.9C114.4,82.8,114.4,82.8,114.4,82.9c-0.1-0.7-0.6-1.2-1.3-1c0,0,0,0-0.1,0
				c-0.3,0.1-0.6,0.3-0.6,0.6c0,0,0,0,0,0.1c-0.2,0.7,0.3,1.2,1,1.3h0.1C113.9,83.9,114.5,83.3,114.4,82.9L114.4,82.9z"/>
		</g>
	</g>
	<g>
		<g>
			<path class="st1" d="M122.4,89.9c1.1,0,2.1-0.9,2-2c0-1.1-0.9-2-2-2s-2.1,0.9-2,2C120.4,88.9,121.2,89.9,122.4,89.9L122.4,89.9z"
				/>
		</g>
	</g>
	<g>
		<g>
			<path class="st1" d="M116.1,91.1c0-0.1,0-0.1,0-0.2c-0.1-1.1-0.9-2.1-2.1-2.1c-1.2,0.1-2,0.9-2.1,2.1c0,0.1,0,0.1,0,0.2
				c-0.1,1.1,1,2.1,2.1,2.1S116.2,92.3,116.1,91.1L116.1,91.1z"/>
		</g>
	</g>
	<g>
		<g>
			<path class="st1" d="M129.9,100.1c1,0,1.9-0.9,1.9-1.9s-0.8-1.9-1.9-1.9c-1,0-1.9,0.9-1.9,1.9
				C128.1,99.2,128.8,100.1,129.9,100.1L129.9,100.1z"/>
		</g>
	</g>
	<g>
		<g>
			<path class="st1" d="M121.8,99.3c0.9,0,1.8-0.8,1.7-1.7c0-0.9-0.8-1.7-1.7-1.7c-0.9,0-1.8,0.8-1.7,1.7
				C120.1,98.6,120.8,99.3,121.8,99.3L121.8,99.3z"/>
		</g>
	</g>
	<g>
		<g>
			<path class="st1" d="M138.2,89.5c1.2,0,2.3-1,2.2-2.2s-1-2.2-2.2-2.2s-2.3,1-2.2,2.2C136,88.4,136.9,89.5,138.2,89.5L138.2,89.5z
				"/>
		</g>
	</g>
	<g>
		<g>
			<path class="st1" d="M138.5,79.7c1.1,0,2.2-1,2.1-2.1c-0.1-1.2-0.9-2.1-2.1-2.1c-1.1,0-2.2,1-2.1,2.1
				C136.4,78.8,137.3,79.7,138.5,79.7L138.5,79.7z"/>
		</g>
	</g>
	<g>
		<g>
			<path class="st1" d="M129.1,67.4c2.6,0,2.6-4,0-4S126.5,67.4,129.1,67.4L129.1,67.4z"/>
		</g>
	</g>
	<g>
		<g>
			<path class="st1" d="M103.4,56.3L103.4,56.3c0.1-0.9-0.1-1.5-0.8-2c0,0-0.1,0-0.1-0.1c-1.4-1-3.1,0.8-2.5,2.2
				c0.3,0.6,0.9,1.1,1.6,1.1C102.4,57.6,103.3,57.1,103.4,56.3L103.4,56.3z"/>
		</g>
	</g>
	<g>
		<g>
			<path class="st1" d="M104.3,65.2c0.9,0,1.8-0.8,1.8-1.8c0-1-0.8-1.8-1.8-1.8c-0.9,0-1.8,0.8-1.8,1.8
				C102.5,64.4,103.3,65.2,104.3,65.2L104.3,65.2z"/>
		</g>
	</g>
	<g>
		<g>
			<path class="st1" d="M111.5,55.6c0.9,0,1.8-0.8,1.8-1.8s-0.8-1.8-1.8-1.8c-0.9,0-1.8,0.8-1.8,1.8
				C109.8,54.8,110.5,55.6,111.5,55.6L111.5,55.6z"/>
		</g>
	</g>
	<g>
		<g>
			<path class="st1" d="M121,58.5c1.7,0,1.8-2.7,0-2.7C119.3,55.8,119.3,58.5,121,58.5L121,58.5z"/>
		</g>
	</g>
	<g>
		<g>
			<path class="st1" d="M125.8,61.2c1.8,0,1.8-2.8,0-2.8S124,61.2,125.8,61.2L125.8,61.2z"/>
		</g>
	</g>
	<g>
		<g>
			<path class="st1" d="M88.9,57.2c2,0,2-3.1,0-3.1C86.9,54.1,86.9,57.2,88.9,57.2L88.9,57.2z"/>
		</g>
	</g>
	<g>
		<g>
			<path class="st1" d="M86.4,61.2c2,0,2-3.1,0-3.1C84.4,58.1,84.4,61.2,86.4,61.2L86.4,61.2z"/>
		</g>
	</g>
	<g>
		<g>
			<path class="st1" d="M86.2,64.5c1.2,0,1.2-1.9,0-1.9S85,64.5,86.2,64.5L86.2,64.5z"/>
		</g>
	</g>
	<g>
		<g>
			<path class="st1" d="M91.6,60c0.8,0,0.8-1.3,0-1.3C90.8,58.7,90.8,60,91.6,60L91.6,60z"/>
		</g>
	</g>
	<g>
		<g>
			<path class="st1" d="M95.4,60.7c1.1,0,1.1-1.8,0-1.8S94.3,60.7,95.4,60.7L95.4,60.7z"/>
		</g>
	</g>
	<g>
		<g>
			<path class="st1" d="M99.5,60.3c1.4,0,1.4-2.2,0-2.2C98,58.1,98,60.3,99.5,60.3L99.5,60.3z"/>
		</g>
	</g>
	<g>
		<g>
			<path class="st1" d="M99.3,64.9c1.6,0,1.6-2.6,0-2.6C97.7,62.3,97.7,64.9,99.3,64.9L99.3,64.9z"/>
		</g>
	</g>
	<g>
		<g>
			<path class="st1" d="M98.6,68.4c0.8,0,0.8-1.2,0-1.2C97.8,67.2,97.8,68.4,98.6,68.4L98.6,68.4z"/>
		</g>
	</g>
	<g>
		<g>
			<path class="st1" d="M95.7,70.2c1.8,0,1.8-2.7,0-2.7C93.9,67.5,93.9,70.2,95.7,70.2L95.7,70.2z"/>
		</g>
	</g>
	<g>
		<g>
			<path class="st1" d="M97.7,74.2c1,0,1-1.6,0-1.6C96.6,72.6,96.6,74.2,97.7,74.2L97.7,74.2z"/>
		</g>
	</g>
	<g>
		<g>
			<path class="st1" d="M98.6,71.3c0.9,0,0.9-1.3,0-1.3S97.7,71.3,98.6,71.3L98.6,71.3z"/>
		</g>
	</g>
	<g>
		<g>
			<path class="st1" d="M102.5,67.4C102.6,67.4,102.6,67.4,102.5,67.4c0.5-0.4,0.1-1.1-0.4-1.1s-0.9,0.7-0.4,1.1c0,0,0.1,0,0.1,0.1
				C102,67.6,102.3,67.6,102.5,67.4L102.5,67.4z"/>
		</g>
	</g>
	<g>
		<g>
			<path class="st1" d="M106.4,66.6C106.4,66.6,106.3,66.6,106.4,66.6c-0.3-0.3-0.6-0.3-0.8-0.1c0,0-0.1,0-0.1,0.1
				c-0.4,0.4-0.1,1.1,0.4,1.1C106.5,67.7,106.8,67,106.4,66.6L106.4,66.6z"/>
		</g>
	</g>
	<g>
		<g>
			<path class="st1" d="M108.8,66.4c1.2,0,1.2-1.8,0-1.8C107.6,64.6,107.6,66.4,108.8,66.4L108.8,66.4z"/>
		</g>
	</g>
	<g>
		<g>
			<path class="st1" d="M106.7,59c0.8,0,1.4-0.7,1.4-1.4c0-0.8-0.7-1.4-1.4-1.4c-0.8,0-1.4,0.7-1.4,1.4
				C105.2,58.3,105.9,59,106.7,59L106.7,59z"/>
		</g>
	</g>
	<g>
		<g>
			<path class="st1" d="M102.8,59.3c0.1,0,0.1-0.2,0-0.2C102.7,59.1,102.7,59.3,102.8,59.3L102.8,59.3z"/>
		</g>
	</g>
	<g>
		<g>
			<path class="st1" d="M102.9,59.7c0.6,0,0.6-1,0-1S102.3,59.7,102.9,59.7L102.9,59.7z"/>
		</g>
	</g>
	<g>
		<g>
			<path class="st1" d="M107.6,62.9c1,0,1-1.6,0-1.6C106.6,61.3,106.6,62.9,107.6,62.9L107.6,62.9z"/>
		</g>
	</g>
	<g>
		<g>
			<path class="st1" d="M104.9,55c1.4,0,1.4-2.2,0-2.2C103.5,52.9,103.5,55,104.9,55L104.9,55z"/>
		</g>
	</g>
	<g>
		<g>
			<path class="st1" d="M107.3,53.6c1,0,1-1.6,0-1.6C106.3,51.9,106.3,53.6,107.3,53.6L107.3,53.6z"/>
		</g>
	</g>
	<g>
		<g>
			<path class="st1" d="M101.7,52.5c0.7,0,0.7-1.1,0-1.1C101.1,51.5,101,52.5,101.7,52.5L101.7,52.5z"/>
		</g>
	</g>
	<g>
		<g>
			<path class="st1" d="M98.3,53.4c0.7,0,0.7-1.1,0-1.1C97.6,52.3,97.6,53.4,98.3,53.4L98.3,53.4z"/>
		</g>
	</g>
	<g>
		<g>
			<path class="st1" d="M97.7,57.4c0.7,0,0.7-1.1,0-1.1C97,56.3,97,57.4,97.7,57.4L97.7,57.4z"/>
		</g>
	</g>
	<g>
		<g>
			<path class="st1" d="M96.3,62.6c0.2,0,0.2-0.4,0-0.4C96.1,62.2,96.1,62.6,96.3,62.6L96.3,62.6z"/>
		</g>
	</g>
	<g>
		<g>
			<path class="st1" d="M96.5,62.5c0.2,0,0.2-0.2,0-0.2S96.3,62.5,96.5,62.5L96.5,62.5z"/>
		</g>
	</g>
	<g>
		<g>
			<path class="st1" d="M96.6,62.5c0-0.1,0-0.1,0-0.2c0-0.1-0.2-0.1-0.2,0s0,0.1,0,0.2C96.4,62.7,96.6,62.7,96.6,62.5L96.6,62.5z"/>
		</g>
	</g>
	<g>
		<g>
			<path class="st1" d="M96,63.3c0.9,0,0.9-1.5,0-1.5S95.1,63.3,96,63.3L96,63.3z"/>
		</g>
	</g>
	<g>
		<g>
			<path class="st1" d="M75.7,69.8c1.6,0,1.6-2.6,0-2.6C74,67.3,74,69.8,75.7,69.8L75.7,69.8z"/>
		</g>
	</g>
	<g>
		<g>
			<path class="st1" d="M78.2,67.3c0.3,0,0.3-0.5,0-0.5C77.9,66.8,77.9,67.3,78.2,67.3L78.2,67.3z"/>
		</g>
	</g>
	<g>
		<g>
			<path class="st1" d="M78.3,67.1c0-0.1,0-0.1,0-0.2s-0.2-0.1-0.2,0s0,0.1,0,0.2C78.1,67.2,78.4,67.2,78.3,67.1L78.3,67.1z"/>
		</g>
	</g>
	<g>
		<g>
			<path class="st1" d="M76.6,65.6c0.2,0,0.2-0.4,0-0.4C76.3,65.2,76.3,65.6,76.6,65.6L76.6,65.6z"/>
		</g>
	</g>
	<g>
		<g>
			<path class="st1" d="M76.4,65.9c0.7,0,0.7-1.1,0-1.1C75.7,64.8,75.7,65.9,76.4,65.9L76.4,65.9z"/>
		</g>
	</g>
	<g>
		<g>
			<path class="st1" d="M71.2,70.5c1.7,0,1.7-2.6,0-2.6C69.5,67.8,69.4,70.5,71.2,70.5L71.2,70.5z"/>
		</g>
	</g>
	<g>
		<g>
			<path class="st1" d="M73.4,71.9c0.6,0,0.6-0.9,0-0.9C72.9,71,72.9,71.9,73.4,71.9L73.4,71.9z"/>
		</g>
	</g>
	<g>
		<g>
			<path class="st1" d="M75.5,73.8c1.1,0,1.1-1.7,0-1.7C74.5,72.1,74.5,73.8,75.5,73.8L75.5,73.8z"/>
		</g>
	</g>
	<g>
		<g>
			<path class="st1" d="M69.3,80.9c1,0,1-1.5,0-1.5C68.4,79.4,68.4,80.9,69.3,80.9L69.3,80.9z"/>
		</g>
	</g>
	<g>
		<g>
			<path class="st1" d="M66.8,79c1.2,0,1.2-1.8,0-1.8C65.6,77.1,65.6,79,66.8,79L66.8,79z"/>
		</g>
	</g>
	<g>
		<g>
			<path class="st1" d="M67,82.9L67,82.9c0.1-1-0.4-1.8-1.3-1.8s-1.4,0.9-1.3,1.7v0.1C64.7,84.2,66.8,84.2,67,82.9L67,82.9z"/>
		</g>
	</g>
	<g>
		<g>
			<path class="st1" d="M68.3,84.7C68.2,84.7,68.2,84.7,68.3,84.7c-0.2-0.1-0.3-0.1-0.5,0c0,0,0,0-0.1,0c-0.4,0.3-0.3,1,0.3,1
				C68.5,85.6,68.7,84.9,68.3,84.7L68.3,84.7z"/>
		</g>
	</g>
	<g>
		<g>
			<path class="st1" d="M69,82.7c0.4,0,0.4-0.6,0-0.6C68.7,82.1,68.7,82.7,69,82.7L69,82.7z"/>
		</g>
	</g>
	<g>
		<g>
			<path class="st1" d="M74.1,79.4L74.1,79.4c-0.5-0.4-1.2-0.2-1.2,0.4s0.7,0.8,1.2,0.5c0,0,0.1,0,0.1-0.1
				C74.4,80.1,74.4,79.6,74.1,79.4L74.1,79.4z"/>
		</g>
	</g>
	<g>
		<g>
			<path class="st1" d="M74.6,81.8c0.1,0,0.1-0.2,0-0.2C74.5,81.6,74.5,81.8,74.6,81.8L74.6,81.8z"/>
		</g>
	</g>
	<g>
		<g>
			<path class="st1" d="M75.2,81.8c0-0.1,0-0.1,0-0.2c0-0.5-0.7-0.5-0.8,0c0,0.1,0,0.1,0,0.2C74.3,82.3,75.2,82.3,75.2,81.8
				L75.2,81.8z"/>
		</g>
	</g>
	<g>
		<g>
			<path class="st1" d="M74.2,89.7L74.2,89.7c0.9-0.8,0.5-2.2-0.5-2.6c-1.1-0.5-2.1,0.3-2.2,1.5c0,0,0,0,0,0.1c0,0.6,0.4,1.2,1,1.4
				S73.7,90.1,74.2,89.7L74.2,89.7z"/>
		</g>
	</g>
	<g>
		<g>
			<path class="st1" d="M74.9,85.7C74.9,85.8,74.9,85.8,74.9,85.7c-0.3,0.3-0.3,0.6-0.1,0.8c0,0,0.1,0,0.1,0.1
				c0.4,0.4,1.1,0.1,1.1-0.4C76,85.6,75.3,85.3,74.9,85.7L74.9,85.7z"/>
		</g>
	</g>
	<g>
		<g>
			<path class="st1" d="M68.4,95.2c2,0,2-3,0-3C66.5,92.2,66.5,95.2,68.4,95.2L68.4,95.2z"/>
		</g>
	</g>
	<g>
		<g>
			<path class="st1" d="M65.8,93.8L65.8,93.8c0.1-0.6-0.3-1-0.8-0.9h-0.1c-0.5,0.1-0.7,0.9-0.3,1.2C64.9,94.5,65.6,94.4,65.8,93.8
				L65.8,93.8z"/>
		</g>
	</g>
	<g>
		<g>
			<path class="st1" d="M64.2,96.6c1,0,1-1.5,0-1.5C63.3,95.1,63.3,96.6,64.2,96.6L64.2,96.6z"/>
		</g>
	</g>
	<g>
		<g>
			<path class="st1" d="M66.5,96.8c0.2,0,0.2-0.4,0-0.4C66.2,96.4,66.2,96.8,66.5,96.8L66.5,96.8z"/>
		</g>
	</g>
	<g>
		<g>
			<path class="st1" d="M69.8,98.8c1.3,0,1.3-2,0-2S68.5,98.8,69.8,98.8L69.8,98.8z"/>
		</g>
	</g>
	<g>
		<g>
			<path class="st1" d="M71.9,96.4c0.7,0,0.7-1.1,0-1.1C71.2,95.3,71.2,96.4,71.9,96.4L71.9,96.4z"/>
		</g>
	</g>
	<g>
		<g>
			<path class="st1" d="M74.8,98.6c1.4,0,1.4-2.2,0-2.2C73.3,96.4,73.3,98.6,74.8,98.6L74.8,98.6z"/>
		</g>
	</g>
	<g>
		<g>
			<path class="st1" d="M76.1,95.3c0.8,0,0.8-1.3,0-1.3C75.3,94,75.3,95.3,76.1,95.3L76.1,95.3z"/>
		</g>
	</g>
	<g>
		<g>
			<path class="st1" d="M77.3,91.7L77.3,91.7c-0.1-0.8-1.3-0.8-1.4-0.1v0.1C75.7,92.9,77.5,92.9,77.3,91.7L77.3,91.7z"/>
		</g>
	</g>
	<g>
		<g>
			<path class="st1" d="M76.7,90.1c0.9,0,0.9-1.5,0-1.5C75.8,88.6,75.8,90.1,76.7,90.1L76.7,90.1z"/>
		</g>
	</g>
	<g>
		<g>
			<path class="st1" d="M78.7,94.2c0.8,0,0.8-1.3,0-1.3C77.9,92.9,77.9,94.2,78.7,94.2L78.7,94.2z"/>
		</g>
	</g>
	<g>
		<g>
			<path class="st1" d="M77.6,96.6c1,0,1-1.5,0-1.5C76.7,95.1,76.7,96.6,77.6,96.6L77.6,96.6z"/>
		</g>
	</g>
	<g>
		<g>
			<path class="st1" d="M81.1,99.7c0.8,0,1.5-0.7,1.5-1.5s-0.7-1.5-1.5-1.5s-1.5,0.7-1.5,1.5S80.3,99.7,81.1,99.7L81.1,99.7z"/>
		</g>
	</g>
	<g>
		<g>
			<path class="st1" d="M77.9,98.3C77.9,98.4,77.8,98.4,77.9,98.3c-0.2,0.2-0.2,0.5-0.1,0.6c0,0,0.1,0,0.1,0.1
				c0.3,0.2,0.8,0.1,0.8-0.3C78.7,98.2,78.2,98.1,77.9,98.3L77.9,98.3z"/>
		</g>
	</g>
	<g>
		<g>
			<path class="st1" d="M75.5,100.4c0.7,0,0.7-1.1,0-1.1S74.8,100.4,75.5,100.4L75.5,100.4z"/>
		</g>
	</g>
	<g>
		<g>
			<path class="st1" d="M71.7,99.7C71.7,99.7,71.7,99.6,71.7,99.7c-0.3-0.5-0.9-0.5-1.1-0.1c0,0,0,0.1-0.1,0.1c-0.2,0.4,0.1,1,0.5,1
				C71.7,100.7,71.9,100.1,71.7,99.7L71.7,99.7z"/>
		</g>
	</g>
	<g>
		<g>
			<path class="st1" d="M71.3,104.1c1.2,0,1.2-1.8,0-1.8C70.1,102.3,70.1,104.1,71.3,104.1L71.3,104.1z"/>
		</g>
	</g>
	<g>
		<g>
			<path class="st1" d="M68.4,106.3c0.8,0,1.5-0.7,1.5-1.5s-0.7-1.5-1.5-1.5s-1.5,0.7-1.5,1.5C67,105.6,67.7,106.3,68.4,106.3
				L68.4,106.3z"/>
		</g>
	</g>
	<g>
		<g>
			<path class="st1" d="M65.4,104.9c0.4,0,0.4-0.7,0-0.7C65,104.2,65,104.9,65.4,104.9L65.4,104.9z"/>
		</g>
	</g>
	<g>
		<g>
			<path class="st1" d="M66.1,108.3C66.2,108.3,66.2,108.2,66.1,108.3c0.9-0.5,0.5-1.8-0.4-1.8s-1.3,1.3-0.5,1.7c0,0,0,0,0.1,0
				C65.6,108.4,65.9,108.4,66.1,108.3L66.1,108.3z"/>
		</g>
	</g>
	<g>
		<g>
			<path class="st1" d="M68.6,108.3L68.6,108.3c-0.1-0.1-0.2-0.1-0.3,0c0,0,0,0-0.1,0c-0.3,0.2-0.2,0.7,0.2,0.7
				C68.8,109,69,108.5,68.6,108.3L68.6,108.3z"/>
		</g>
	</g>
	<g>
		<g>
			<path class="st1" d="M72.7,110.3c1.7,0,1.7-2.7,0-2.7C70.9,107.6,70.9,110.3,72.7,110.3L72.7,110.3z"/>
		</g>
	</g>
	<g>
		<g>
			<path class="st1" d="M72.1,106.6c0.6,0,0.6-1,0-1C71.4,105.6,71.4,106.6,72.1,106.6L72.1,106.6z"/>
		</g>
	</g>
	<g>
		<g>
			<path class="st1" d="M76.4,109.7c1.5,0,1.5-2.3,0-2.3C74.9,107.4,74.9,109.7,76.4,109.7L76.4,109.7z"/>
		</g>
	</g>
	<g>
		<g>
			<path class="st1" d="M78.7,107c1,0,1-1.5,0-1.5S77.7,107,78.7,107L78.7,107z"/>
		</g>
	</g>
	<g>
		<g>
			<path class="st1" d="M80.6,111.1c2,0,2-3.1,0-3.1S78.6,111.1,80.6,111.1L80.6,111.1z"/>
		</g>
	</g>
	<g>
		<g>
			<path class="st1" d="M76.6,111.1c0.3,0,0.3-0.4,0-0.4C76.3,110.7,76.3,111.1,76.6,111.1L76.6,111.1z"/>
		</g>
	</g>
	<g>
		<g>
			<path class="st1" d="M73.7,113.9c1.4,0,1.4-2.1,0-2.1C72.3,111.8,72.3,113.9,73.7,113.9L73.7,113.9z"/>
		</g>
	</g>
	<g>
		<g>
			<path class="st1" d="M73.1,117.6c1.1,0,1.1-1.7,0-1.7S72,117.6,73.1,117.6L73.1,117.6z"/>
		</g>
	</g>
	<g>
		<g>
			<path class="st1" d="M74,121.5c1.9,0,1.9-2.9,0-2.9S72.1,121.5,74,121.5L74,121.5z"/>
		</g>
	</g>
	<g>
		<g>
			<path class="st1" d="M70.3,116.3c0.8,0,0.8-1.2,0-1.2C69.5,115.1,69.5,116.3,70.3,116.3L70.3,116.3z"/>
		</g>
	</g>
	<g>
		<g>
			<path class="st1" d="M70.6,118.7c0.9,0,0.9-1.4,0-1.4C69.6,117.2,69.6,118.7,70.6,118.7L70.6,118.7z"/>
		</g>
	</g>
	<g>
		<g>
			<path class="st1" d="M76.4,112.1c1,0,1-1.5,0-1.5S75.4,112.1,76.4,112.1L76.4,112.1z"/>
		</g>
	</g>
	<g>
		<g>
			<path class="st1" d="M82.8,114.3c1,0,1-1.5,0-1.5C81.8,112.9,81.8,114.3,82.8,114.3L82.8,114.3z"/>
		</g>
	</g>
	<g>
		<g>
			<path class="st1" d="M85.5,114c1.7,0,1.7-2.7,0-2.7C83.7,111.4,83.7,114,85.5,114L85.5,114z"/>
		</g>
	</g>
	<g>
		<g>
			<path class="st1" d="M85,117.7c0.9,0,0.9-1.3,0-1.3C84.2,116.4,84.2,117.7,85,117.7L85,117.7z"/>
		</g>
	</g>
	<g>
		<g>
			<path class="st1" d="M81.7,118.4c0.9,0,0.9-1.4,0-1.4C80.8,117,80.8,118.4,81.7,118.4L81.7,118.4z"/>
		</g>
	</g>
	<g>
		<g>
			<path class="st1" d="M81.2,121c0.8,0,0.8-1.3,0-1.3C80.4,119.7,80.4,121,81.2,121L81.2,121z"/>
		</g>
	</g>
	<g>
		<g>
			<path class="st1" d="M89.4,113.4c1.1,0,1.1-1.7,0-1.7C88.3,111.7,88.3,113.4,89.4,113.4L89.4,113.4z"/>
		</g>
	</g>
	<g>
		<g>
			<path class="st1" d="M84,104.6c1.2,0,1.2-1.8,0-1.8C82.8,102.7,82.8,104.6,84,104.6L84,104.6z"/>
		</g>
	</g>
	<g>
		<g>
			<path class="st1" d="M80.6,103.1c1.4,0,1.4-2.2,0-2.2C79.3,100.9,79.3,103.1,80.6,103.1L80.6,103.1z"/>
		</g>
	</g>
	<g>
		<g>
			<path class="st1" d="M98.1,87.1c0.8,0,1.5-0.7,1.5-1.5s-0.7-1.5-1.5-1.5s-1.5,0.7-1.5,1.5S97.3,87.1,98.1,87.1L98.1,87.1z"/>
		</g>
	</g>
	<g>
		<g>
			<path class="st1" d="M100.5,83.8c0.8,0,0.8-1.3,0-1.3S99.7,83.8,100.5,83.8L100.5,83.8z"/>
		</g>
	</g>
	<g>
		<g>
			<path class="st1" d="M101.4,85.4c0.6,0,0.6-0.9,0-0.9S100.8,85.4,101.4,85.4L101.4,85.4z"/>
		</g>
	</g>
	<g>
		<g>
			<path class="st1" d="M99.9,89.3c0.7,0,0.7-1.1,0-1.1C99.2,88.2,99.2,89.3,99.9,89.3L99.9,89.3z"/>
		</g>
	</g>
	<g>
		<g>
			<path class="st1" d="M95.6,89.8c0.8,0,0.8-1.3,0-1.3C94.7,88.6,94.7,89.8,95.6,89.8L95.6,89.8z"/>
		</g>
	</g>
	<g>
		<g>
			<path class="st1" d="M104.5,95.1c-0.1-0.1-0.1-0.2-0.2-0.3c-0.3-0.5-1.3-0.2-1,0.4c0,0.1,0.1,0.2,0.1,0.3
				C103.7,96.4,105,95.8,104.5,95.1L104.5,95.1z"/>
		</g>
	</g>
	<g>
		<g>
			<path class="st1" d="M101.7,93.1c0.8,0,0.8-1.3,0-1.3C100.9,91.9,100.9,93.1,101.7,93.1L101.7,93.1z"/>
		</g>
	</g>
	<g>
		<g>
			<path class="st1" d="M100.8,98.4c0.8,0,1.4-0.7,1.4-1.4c0-0.8-0.6-1.4-1.4-1.4s-1.4,0.7-1.4,1.4C99.4,97.8,100.1,98.4,100.8,98.4
				L100.8,98.4z"/>
		</g>
	</g>
	<g>
		<g>
			<path class="st1" d="M107,92.3c0.7,0,0.7-1.1,0-1.1C106.3,91.2,106.3,92.3,107,92.3L107,92.3z"/>
		</g>
	</g>
	<g>
		<g>
			<path class="st1" d="M109.7,95.9c1.5,0,1.5-2.3,0-2.3S108.2,95.9,109.7,95.9L109.7,95.9z"/>
		</g>
	</g>
	<g>
		<g>
			<path class="st1" d="M110.9,85.8L110.9,85.8c1-0.7,1.3-1.9,0.4-2.8c-0.3-0.3-0.8-0.5-1.2-0.5c-0.7,0-1.1,0.4-1.5,0.9
				c0,0,0,0.1-0.1,0.1c-0.4,0.6-0.2,1.6,0.3,2.1C109.3,86.1,110.3,86.3,110.9,85.8L110.9,85.8z"/>
		</g>
	</g>
	<g>
		<g>
			<path class="st1" d="M109.3,88.8c0.7,0,0.7-1,0-1C108.6,87.8,108.6,88.8,109.3,88.8L109.3,88.8z"/>
		</g>
	</g>
	<g>
		<g>
			<path class="st1" d="M106.5,86.2c0.6,0,0.6-1,0-1S105.9,86.2,106.5,86.2L106.5,86.2z"/>
		</g>
	</g>
	<g>
		<g>
			<path class="st1" d="M104.6,82.7c0.8,0,0.8-1.2,0-1.2C103.8,81.5,103.8,82.7,104.6,82.7L104.6,82.7z"/>
		</g>
	</g>
	<g>
		<g>
			<path class="st1" d="M103.4,83.8C103.4,83.8,103.4,83.7,103.4,83.8c-0.2-0.4-0.7-0.4-0.8-0.1c0,0,0,0.1-0.1,0.1
				C102.1,84.7,103.8,84.7,103.4,83.8L103.4,83.8z"/>
		</g>
	</g>
	<g>
		<g>
			<path class="st1" d="M103.2,81.2c0.6,0,0.6-0.9,0-0.9C102.7,80.3,102.7,81.2,103.2,81.2L103.2,81.2z"/>
		</g>
	</g>
	<g>
		<g>
			<path class="st1" d="M102.3,76.9c0.3,0,0.3-0.4,0-0.4S102,76.9,102.3,76.9L102.3,76.9z"/>
		</g>
	</g>
	<g>
		<g>
			<path class="st1" d="M100.2,75.8c0.4,0,0.4-0.7,0-0.7C99.8,75.1,99.8,75.8,100.2,75.8L100.2,75.8z"/>
		</g>
	</g>
	<g>
		<g>
			<path class="st1" d="M96.3,76.6c0.4,0,0.4-0.7,0-0.7S95.9,76.6,96.3,76.6L96.3,76.6z"/>
		</g>
	</g>
	<g>
		<g>
			<path class="st1" d="M93.7,73.2c0.6,0,0.6-0.9,0-0.9C93.2,72.3,93.2,73.2,93.7,73.2L93.7,73.2z"/>
		</g>
	</g>
	<g>
		<g>
			<path class="st1" d="M95.3,73c0.6,0,0.6-1,0-1C94.6,72,94.6,73,95.3,73L95.3,73z"/>
		</g>
	</g>
	<g>
		<g>
			<path class="st1" d="M113.2,98.5c1.9,0,1.9-3,0-3C111.3,95.5,111.3,98.5,113.2,98.5L113.2,98.5z"/>
		</g>
	</g>
	<g>
		<g>
			<path class="st1" d="M112.4,98.7c1.9,0,1.9-3,0-3S110.5,98.7,112.4,98.7L112.4,98.7z"/>
		</g>
	</g>
	<g>
		<g>
			<path class="st1" d="M112.7,69c1.9,0,1.9-3,0-3C110.8,66,110.8,69,112.7,69L112.7,69z"/>
		</g>
	</g>
	<g>
		<g>
			<path class="st1" d="M113.3,98.4c1.9,0,1.9-3,0-3S111.4,98.4,113.3,98.4L113.3,98.4z"/>
		</g>
	</g>
	<g>
		<g>
			<path class="st1" d="M118.9,81.3c1.9,0,1.9-3,0-3C117,78.4,117,81.3,118.9,81.3L118.9,81.3z"/>
		</g>
	</g>
	<g>
		<g>
			<path class="st1" d="M113.5,78.7c1.3,0,1.3-2,0-2S112.2,78.7,113.5,78.7L113.5,78.7z"/>
		</g>
	</g>
	<g>
		<g>
			<path class="st1" d="M107.9,78c2,0,2-3.2,0-3.2S105.9,78,107.9,78L107.9,78z"/>
		</g>
	</g>
	<g>
		<g>
			<path class="st1" d="M104.5,78.4C104.5,78.3,104.5,78.3,104.5,78.4c0.7-0.6-0.3-1.7-0.9-1c0,0,0,0.1-0.1,0.1
				C103,78.1,103.8,78.9,104.5,78.4L104.5,78.4z"/>
		</g>
	</g>
	<g>
		<g>
			<path class="st1" d="M108.4,81.8c1.7,0,1.7-2.7,0-2.7C106.6,79.1,106.6,81.8,108.4,81.8L108.4,81.8z"/>
		</g>
	</g>
	<g>
		<g>
			<path class="st1" d="M112,74.6c0.8,0,1.5-0.7,1.5-1.5s-0.7-1.5-1.5-1.5s-1.5,0.7-1.5,1.5S111.1,74.6,112,74.6L112,74.6z"/>
		</g>
	</g>
	<g>
		<g>
			<path class="st1" d="M109.3,70.5c1,0,1-1.6,0-1.6C108.2,69,108.2,70.5,109.3,70.5L109.3,70.5z"/>
		</g>
	</g>
	<g>
		<g>
			<path class="st1" d="M106.9,72.9c0.6,0,0.6-0.9,0-0.9S106.3,72.9,106.9,72.9L106.9,72.9z"/>
		</g>
	</g>
	<g>
		<g>
			<path class="st1" d="M104,75.6c0.9,0,0.9-1.4,0-1.4S103.1,75.6,104,75.6L104,75.6z"/>
		</g>
	</g>
	<g>
		<g>
			<path class="st1" d="M116.6,69.1c0.7,0,0.7-1.1,0-1.1S115.9,69.1,116.6,69.1L116.6,69.1z"/>
		</g>
	</g>
	<g>
		<g>
			<path class="st1" d="M120.4,70.2c1.9,0,1.9-3,0-3S118.5,70.2,120.4,70.2L120.4,70.2z"/>
		</g>
	</g>
	<g>
		<g>
			<path class="st1" d="M123.4,70.4c0.8,0,0.8-1.2,0-1.2C122.6,69.2,122.6,70.4,123.4,70.4L123.4,70.4z"/>
		</g>
	</g>
	<g>
		<g>
			<path class="st1" d="M124,67.5c0.6,0,0.6-1,0-1C123.4,66.6,123.4,67.5,124,67.5L124,67.5z"/>
		</g>
	</g>
	<g>
		<g>
			<path class="st1" d="M126.7,71.5c0.7,0,0.7-1,0-1C126.1,70.5,126.1,71.5,126.7,71.5L126.7,71.5z"/>
		</g>
	</g>
	<g>
		<g>
			<path class="st1" d="M125.2,74.4c0.9,0,0.9-1.4,0-1.4C124.3,73,124.3,74.4,125.2,74.4L125.2,74.4z"/>
		</g>
	</g>
	<g>
		<g>
			<path class="st1" d="M125.4,78.6c0.8,0,0.8-1.3,0-1.3C124.5,77.2,124.5,78.6,125.4,78.6L125.4,78.6z"/>
		</g>
	</g>
	<g>
		<g>
			<path class="st1" d="M125.1,83.7c2.1,0,2.1-3.2,0-3.2S123,83.7,125.1,83.7L125.1,83.7z"/>
		</g>
	</g>
	<g>
		<g>
			<path class="st1" d="M128.1,81.5L128.1,81.5c-0.1-0.6-0.9-0.6-1-0.1v0.1C127,82.4,128.3,82.4,128.1,81.5L128.1,81.5z"/>
		</g>
	</g>
	<g>
		<g>
			<path class="st1" d="M141,100.2c0.8,0,1.4-0.7,1.4-1.4c0-0.8-0.7-1.4-1.4-1.4c-0.8,0-1.4,0.7-1.4,1.4
				C139.5,99.5,140.2,100.2,141,100.2L141,100.2z"/>
		</g>
	</g>
	<g>
		<g>
			<path class="st1" d="M138,110.3c0.9,0,1.7-0.8,1.6-1.6c0-0.9-0.7-1.6-1.6-1.6c-0.9,0-1.7,0.8-1.6,1.6
				C136.4,109.5,137.1,110.3,138,110.3L138,110.3z"/>
		</g>
	</g>
	<g>
		<g>
			<path class="st1" d="M143.6,106.3c2,0,2-3.2,0-3.2C141.6,103.1,141.6,106.3,143.6,106.3L143.6,106.3z"/>
		</g>
	</g>
	<g>
		<g>
			<path class="st1" d="M136.1,102.3c1.4,0,1.4-2.2,0-2.2C134.6,100.1,134.6,102.3,136.1,102.3L136.1,102.3z"/>
		</g>
	</g>
	<g>
		<g>
			<path class="st1" d="M132.5,120.9c0.9,0,1.8-0.8,1.8-1.8s-0.8-1.8-1.8-1.8c-0.9,0-1.8,0.8-1.8,1.8S131.5,120.9,132.5,120.9
				L132.5,120.9z"/>
		</g>
	</g>
	<g>
		<g>
			<path class="st1" d="M129.4,128c1.4,0,1.5-2.3,0-2.3C128,125.7,128,128,129.4,128L129.4,128z"/>
		</g>
	</g>
	<g>
		<g>
			<path class="st1" d="M127.2,124.5c0.8,0,1.6-0.7,1.6-1.6s-0.7-1.6-1.6-1.6c-0.8,0-1.6,0.7-1.6,1.6
				C125.6,123.8,126.3,124.5,127.2,124.5L127.2,124.5z"/>
		</g>
	</g>
	<g>
		<g>
			<path class="st1" d="M123.1,123.4c0.3,0,0.3-0.4,0-0.4C122.9,123,122.9,123.4,123.1,123.4L123.1,123.4z"/>
		</g>
	</g>
	<g>
		<g>
			<path class="st1" d="M125.8,127c0.6,0,0.6-0.9,0-0.9C125.2,126.1,125.2,127,125.8,127L125.8,127z"/>
		</g>
	</g>
	<g>
		<g>
			<path class="st1" d="M124.9,130.8c0.9,0,0.9-1.4,0-1.4C124,129.5,124,130.8,124.9,130.8L124.9,130.8z"/>
		</g>
	</g>
	<g>
		<g>
			<path class="st1" d="M120.9,133.1c0.7,0,0.7-1,0-1C120.2,132.1,120.2,133.1,120.9,133.1L120.9,133.1z"/>
		</g>
	</g>
	<g>
		<g>
			<path class="st1" d="M109,136.6c0.9,0,0.9-1.4,0-1.4C108.1,135.2,108.1,136.6,109,136.6L109,136.6z"/>
		</g>
	</g>
	<g>
		<g>
			<path class="st1" d="M104.1,136.5c0.6,0,0.6-0.9,0-0.9C103.6,135.6,103.6,136.5,104.1,136.5L104.1,136.5z"/>
		</g>
	</g>
	<g>
		<g>
			<path class="st1" d="M93.3,135.5c0.7,0,0.7-1.1,0-1.1C92.6,134.4,92.6,135.5,93.3,135.5L93.3,135.5z"/>
		</g>
	</g>
	<g>
		<g>
			<path class="st1" d="M84.7,128.9c0.7,0,0.7-1.1,0-1.1C84,127.8,84,128.9,84.7,128.9L84.7,128.9z"/>
		</g>
	</g>
	<g>
		<g>
			<path class="st1" d="M80.5,128c0.7,0,0.7-1.1,0-1.1S79.8,128,80.5,128L80.5,128z"/>
		</g>
	</g>
	<g>
		<g>
			<path class="st1" d="M77.3,128.4c1.2,0,1.2-1.9,0-1.9C76.1,126.5,76.1,128.4,77.3,128.4L77.3,128.4z"/>
		</g>
	</g>
	<g>
		<g>
			<path class="st1" d="M80.2,125.5c0.2,0,0.2-0.3,0-0.3S80,125.5,80.2,125.5L80.2,125.5z"/>
		</g>
	</g>
	<g>
		<g>
			<path class="st1" d="M139.2,115.8c1.9,0,1.9-3,0-3C137.3,112.9,137.3,115.8,139.2,115.8L139.2,115.8z"/>
		</g>
	</g>
	<g>
		<g>
			<path class="st1" d="M134.1,112.4c0.3,0,0.3-0.5,0-0.5C133.8,111.8,133.8,112.4,134.1,112.4L134.1,112.4z"/>
		</g>
	</g>
	<g>
		<g>
			<path class="st1" d="M133.5,115.7c1.1,0,1.1-1.7,0-1.7C132.4,113.9,132.4,115.7,133.5,115.7L133.5,115.7z"/>
		</g>
	</g>
	<g>
		<g>
			<path class="st1" d="M137.3,119.3c0.9,0,0.9-1.4,0-1.4C136.4,117.8,136.4,119.3,137.3,119.3L137.3,119.3z"/>
		</g>
	</g>
	<g>
		<g>
			<path class="st1" d="M134.3,123.5c0.8,0,0.8-1.2,0-1.2S133.5,123.5,134.3,123.5L134.3,123.5z"/>
		</g>
	</g>
	<g>
		<g>
			<path class="st1" d="M138.8,103.2c0.8,0,0.8-1.3,0-1.3C137.9,102,137.9,103.2,138.8,103.2L138.8,103.2z"/>
		</g>
	</g>
	<g>
		<g>
			<path class="st1" d="M133.8,104.8c0,0-0.1,0-0.1,0.1c-0.4,0.2-0.4,0.7,0,0.9c0,0,0.1,0,0.1,0.1
				C134.7,106.2,134.7,104.4,133.8,104.8L133.8,104.8z"/>
		</g>
	</g>
	<g>
		<g>
			<path class="st1" d="M134,94.7c2.2,0,2.2-3.4,0-3.4C131.8,91.3,131.8,94.7,134,94.7L134,94.7z"/>
		</g>
	</g>
	<g>
		<g>
			<path class="st1" d="M130.3,91.8c1,0,1-1.6,0-1.6C129.3,90.2,129.3,91.8,130.3,91.8L130.3,91.8z"/>
		</g>
	</g>
	<g>
		<g>
			<path class="st1" d="M127.8,94.6c0.9,0,0.9-1.4,0-1.4C126.9,93.2,126.9,94.6,127.8,94.6L127.8,94.6z"/>
		</g>
	</g>
	<g>
		<g>
			<path class="st1" d="M126.4,91.3c0.5,0,0.5-0.8,0-0.8C125.9,90.4,125.9,91.3,126.4,91.3L126.4,91.3z"/>
		</g>
	</g>
	<g>
		<g>
			<path class="st1" d="M123.9,93.1c0.4,0,0.4-0.6,0-0.6S123.5,93.1,123.9,93.1L123.9,93.1z"/>
		</g>
	</g>
	<g>
		<g>
			<path class="st1" d="M125.5,96.8c0.7,0,0.7-1.1,0-1.1C124.8,95.7,124.8,96.8,125.5,96.8L125.5,96.8z"/>
		</g>
	</g>
	<g>
		<g>
			<path class="st1" d="M125.2,100.8c0.8,0,0.8-1.3,0-1.3C124.4,99.6,124.4,100.8,125.2,100.8L125.2,100.8z"/>
		</g>
	</g>
	<g>
		<g>
			<path class="st1" d="M130.3,104.1c1.2,0,1.2-1.9,0-1.9S129.1,104.1,130.3,104.1L130.3,104.1z"/>
		</g>
	</g>
	<g>
		<g>
			<path class="st1" d="M134.7,98.1c0.8,0,0.8-1.3,0-1.3C133.9,96.8,133.9,98.1,134.7,98.1L134.7,98.1z"/>
		</g>
	</g>
	<g>
		<g>
			<path class="st1" d="M141.3,95.9c2.1,0,2.1-3.2,0-3.2C139.3,92.7,139.3,95.9,141.3,95.9L141.3,95.9z"/>
		</g>
	</g>
	<g>
		<g>
			<path class="st1" d="M137.7,92.7c1,0,1-1.5,0-1.5C136.7,91.1,136.7,92.7,137.7,92.7L137.7,92.7z"/>
		</g>
	</g>
	<g>
		<g>
			<path class="st1" d="M137,97.3c0.8,0,1.4-0.7,1.4-1.4c0-0.8-0.7-1.4-1.4-1.4c-0.8,0-1.4,0.7-1.4,1.4
				C135.6,96.7,136.3,97.3,137,97.3L137,97.3z"/>
		</g>
	</g>
	<g>
		<g>
			<path class="st1" d="M144.7,91.1c2,0,2-3.2,0-3.2C142.6,87.9,142.6,91.1,144.7,91.1L144.7,91.1z"/>
		</g>
	</g>
	<g>
		<g>
			<path class="st1" d="M144.2,84.7c0.8,0,0.8-1.3,0-1.3C143.4,83.4,143.4,84.7,144.2,84.7L144.2,84.7z"/>
		</g>
	</g>
	<g>
		<g>
			<path class="st1" d="M142.1,87.4c0.8,0,0.8-1.2,0-1.2C141.3,86.2,141.3,87.4,142.1,87.4L142.1,87.4z"/>
		</g>
	</g>
	<g>
		<g>
			<path class="st1" d="M145.6,94.6c0.7,0,0.7-1.1,0-1.1C144.8,93.4,144.8,94.6,145.6,94.6L145.6,94.6z"/>
		</g>
	</g>
	<g>
		<g>
			<path class="st1" d="M143.9,98.2c0.6,0,0.6-0.9,0-0.9C143.3,97.3,143.3,98.2,143.9,98.2L143.9,98.2z"/>
		</g>
	</g>
	<g>
		<g>
			<path class="st1" d="M145.4,100.9c0.7,0,0.7-1.1,0-1.1S144.7,100.9,145.4,100.9L145.4,100.9z"/>
		</g>
	</g>
	<g>
		<g>
			<path class="st1" d="M142.1,111.1c1.1,0,1.1-1.6,0-1.6S141,111.1,142.1,111.1L142.1,111.1z"/>
		</g>
	</g>
	<g>
		<g>
			<path class="st1" d="M134.6,108.6C134.6,108.6,134.6,108.5,134.6,108.6c0.1-0.2,0.1-0.3,0.1-0.4l-0.1-0.1
				c-0.2-0.3-0.7-0.1-0.6,0.2c0,0.1,0,0.1,0,0.2c0,0.2,0.2,0.2,0.3,0.3C134.4,108.7,134.5,108.7,134.6,108.6L134.6,108.6z"/>
		</g>
	</g>
	<g>
		<g>
			<path class="st1" d="M133.4,84c0.8,0,1.5-0.7,1.5-1.5s-0.7-1.5-1.5-1.5s-1.5,0.7-1.5,1.5C131.9,83.4,132.6,84,133.4,84L133.4,84z
				"/>
		</g>
	</g>
	<g>
		<g>
			<path class="st1" d="M133.2,86.7c0.8,0,0.8-1.2,0-1.2C132.4,85.4,132.4,86.7,133.2,86.7L133.2,86.7z"/>
		</g>
	</g>
	<g>
		<g>
			<path class="st1" d="M134.6,88.8c0.5,0,0.5-0.7,0-0.7C134.1,88.1,134.1,88.8,134.6,88.8L134.6,88.8z"/>
		</g>
	</g>
	<g>
		<g>
			<path class="st1" d="M131.2,88.4c0.5,0,0.5-0.8,0-0.8S130.7,88.4,131.2,88.4L131.2,88.4z"/>
		</g>
	</g>
	<g>
		<g>
			<path class="st1" d="M138.9,83.1c0.7,0,0.7-1,0-1C138.3,82,138.3,83.1,138.9,83.1L138.9,83.1z"/>
		</g>
	</g>
	<g>
		<g>
			<path class="st1" d="M133.7,78.5c0.8,0,0.8-1.2,0-1.2S132.9,78.5,133.7,78.5L133.7,78.5z"/>
		</g>
	</g>
	<g>
		<g>
			<path class="st1" d="M130.2,80.4c0.9,0,0.9-1.4,0-1.4S129.3,80.4,130.2,80.4L130.2,80.4z"/>
		</g>
	</g>
	<g>
		<g>
			<path class="st1" d="M136.2,73.1c2.2,0,2.2-3.4,0-3.4C134.1,69.7,134.1,73.1,136.2,73.1L136.2,73.1z"/>
		</g>
	</g>
	<g>
		<g>
			<path class="st1" d="M135.5,68.6c0.8,0,0.8-1.2,0-1.2C134.7,67.3,134.7,68.6,135.5,68.6L135.5,68.6z"/>
		</g>
	</g>
	<g>
		<g>
			<path class="st1" d="M131.4,71.3c0.9,0,0.9-1.3,0-1.3S130.5,71.3,131.4,71.3L131.4,71.3z"/>
		</g>
	</g>
	<g>
		<g>
			<path class="st1" d="M134.6,74.9L134.6,74.9c0.1-0.2,0.1-0.2,0.1-0.3c0,0,0-0.1-0.1-0.1c-0.2-0.2-0.5,0-0.5,0.2
				C134.1,75,134.4,75.1,134.6,74.9L134.6,74.9z"/>
		</g>
	</g>
	<g>
		<g>
			<path class="st1" d="M139.1,74.4c0.5,0,0.5-0.8,0-0.8S138.6,74.4,139.1,74.4L139.1,74.4z"/>
		</g>
	</g>
	<g>
		<g>
			<path class="st1" d="M142.8,79.8c0.9,0,0.9-1.3,0-1.3C142,78.4,142,79.8,142.8,79.8L142.8,79.8z"/>
		</g>
	</g>
	<g>
		<g>
			<path class="st1" d="M141.8,82.1C141.8,82.1,141.7,82,141.8,82.1c-0.2-0.1-0.4-0.1-0.5,0c0,0,0,0-0.1,0c-0.5,0.3-0.3,1.1,0.3,1.1
				C142.1,83.1,142.3,82.4,141.8,82.1L141.8,82.1z"/>
		</g>
	</g>
	<g>
		<g>
			<path class="st1" d="M114.2,56.3C114.2,56.3,114.2,56.4,114.2,56.3c0.2,0.4,0.5,0.4,0.7,0.1c0,0,0-0.1,0.1-0.1
				C115.1,55.7,114,55.7,114.2,56.3L114.2,56.3z"/>
		</g>
	</g>
	<g>
		<g>
			<path class="st1" d="M113.8,59.5c0.1,0,0.1-0.2,0-0.2C113.7,59.3,113.7,59.5,113.8,59.5L113.8,59.5z"/>
		</g>
	</g>
	<g>
		<g>
			<path class="st1" d="M116.8,60.3c0.5,0.2,0.9-0.7,0.4-0.9C116.6,59,116.1,60,116.8,60.3L116.8,60.3z"/>
		</g>
	</g>
	<g>
		<g>
			<path class="st1" d="M113.8,59.4c0.1,0,0.1,0,0.2,0c0.2,0,0.4-0.2,0.4-0.4s-0.1-0.3-0.2-0.4c-0.2-0.1-0.5,0-0.6,0.2l-0.1,0.1
				C113.3,59.1,113.5,59.4,113.8,59.4L113.8,59.4z"/>
		</g>
	</g>
	<g>
		<g>
			<path class="st1" d="M115.4,62.1c0.8,0,0.8-1.3,0-1.3S114.6,62.1,115.4,62.1L115.4,62.1z"/>
		</g>
	</g>
	<g>
		<g>
			<path class="st1" d="M114.4,64.9c0.5,0,0.5-0.8,0-0.8C113.8,64.1,113.8,64.9,114.4,64.9L114.4,64.9z"/>
		</g>
	</g>
	<g>
		<g>
			<path class="st1" d="M116.5,66.9c0.8,0,0.8-1.3,0-1.3C115.7,65.7,115.7,66.9,116.5,66.9L116.5,66.9z"/>
		</g>
	</g>
	<g>
		<g>
			<path class="st1" d="M115.7,73.7c1.4,0,1.4-2.2,0-2.2C114.3,71.5,114.3,73.7,115.7,73.7L115.7,73.7z"/>
		</g>
	</g>
	<g>
		<g>
			<path class="st1" d="M115.9,77.1c0.7,0,0.7-1.1,0-1.1C115.2,76,115.2,77.1,115.9,77.1L115.9,77.1z"/>
		</g>
	</g>
	<g>
		<g>
			<path class="st1" d="M118.7,77.5C118.8,77.5,118.8,77.4,118.7,77.5L118.7,77.5L118.7,77.5z"/>
		</g>
	</g>
	<g>
		<g>
			<path class="st1" d="M119,77.8c0.7,0,0.7-1.1,0-1.1C118.4,76.8,118.4,77.8,119,77.8L119,77.8z"/>
		</g>
	</g>
	<g>
		<g>
			<path class="st1" d="M117.8,84L117.8,84c0.3-1.4-1.9-1.4-1.6-0.1V84C116.5,84.7,117.7,84.7,117.8,84L117.8,84z"/>
		</g>
	</g>
	<g>
		<g>
			<path class="st1" d="M117.4,87.9c1.8,0,1.8-2.9,0-2.9C115.6,85.1,115.5,87.9,117.4,87.9L117.4,87.9z"/>
		</g>
	</g>
	<g>
		<g>
			<path class="st1" d="M119,90.8c0.8,0,0.8-1.2,0-1.2C118.3,89.7,118.3,90.8,119,90.8L119,90.8z"/>
		</g>
	</g>
	<g>
		<g>
			<path class="st1" d="M118.6,92.9c0.5,0,0.5-0.8,0-0.8S118.1,92.9,118.6,92.9L118.6,92.9z"/>
		</g>
	</g>
	<g>
		<g>
			<path class="st1" d="M118,95.9c0.7,0,0.7-1.1,0-1.1S117.3,95.9,118,95.9L118,95.9z"/>
		</g>
	</g>
	<g>
		<g>
			<path class="st1" d="M116,99.7c1.3,0,1.3-2,0-2C114.8,97.7,114.8,99.7,116,99.7L116,99.7z"/>
		</g>
	</g>
	<g>
		<g>
			<path class="st1" d="M112.7,103.3c1.1,0,1.1-1.8,0-1.8C111.6,101.6,111.6,103.3,112.7,103.3L112.7,103.3z"/>
		</g>
	</g>
	<g>
		<g>
			<path class="st1" d="M109.7,104.6C109.7,104.5,109.7,104.5,109.7,104.6c0.3-0.7-0.2-1.2-0.8-0.9h-0.1
				C107.8,104.1,109.2,105.6,109.7,104.6L109.7,104.6z"/>
		</g>
	</g>
	<g>
		<g>
			<path class="st1" d="M124.8,63.8c0.8,0,0.8-1.3,0-1.3S124,63.8,124.8,63.8L124.8,63.8z"/>
		</g>
	</g>
	<g>
		<g>
			<path class="st1" d="M130.1,61.3L130.1,61.3c-0.7-0.5-1.5,0.3-1.1,0.9c0,0,0,0.1,0.1,0.1C129.8,63.3,131.1,62,130.1,61.3
				L130.1,61.3z"/>
		</g>
	</g>
	<g>
		<g>
			<path class="st1" d="M133.2,66.5h0.1c0.6-0.2,0.6-1,0-1.2h-0.1C132.2,64.9,132.2,66.8,133.2,66.5L133.2,66.5z"/>
		</g>
	</g>
	<g>
		<g>
			<path class="st1" d="M116.5,55.7c1.3,0,1.3-1.9,0-1.9C115.2,53.7,115.2,55.7,116.5,55.7L116.5,55.7z"/>
		</g>
	</g>
	<g>
		<g>
			<path class="st1" d="M110.7,57.2C110.7,57.2,110.7,57.3,110.7,57.2c-0.7,0.8,0.2,1.7,0.9,1.1c0,0,0.1,0,0.1-0.1
				C112.4,57.6,111.3,56.5,110.7,57.2L110.7,57.2z"/>
		</g>
	</g>
	<g>
		<g>
			<path class="st1" d="M81.4,67.1c0.3-0.1,0.4-0.2,0.5-0.5c0.2-0.4-0.3-0.8-0.7-0.7c-0.3,0.1-0.5,0.2-0.5,0.5
				C80.6,66.9,81,67.2,81.4,67.1L81.4,67.1z"/>
		</g>
	</g>
	<g>
		<g>
			<path class="st2" d="M69.8,86.8c1.1,0,1.1-1.6,0-1.6C68.7,85.2,68.7,86.8,69.8,86.8L69.8,86.8z"/>
		</g>
	</g>
	<g>
		<g>
			<path class="st2" d="M63.9,85.9c1.3,0,1.3-1.9,0-1.9C62.7,84,62.7,85.9,63.9,85.9L63.9,85.9z"/>
		</g>
	</g>
	<g>
		<g>
			<path class="st2" d="M62,88.9c0.4,0,0.4-0.6,0-0.6S61.6,88.9,62,88.9L62,88.9z"/>
		</g>
	</g>
	<g>
		<g>
			<path class="st2" d="M61.4,92.7c0.9,0.6,1.8-0.8,0.9-1.4C61.3,90.8,60.5,92.1,61.4,92.7L61.4,92.7z"/>
		</g>
	</g>
	<g>
		<g>
			<path class="st2" d="M63.2,94.3L63.2,94.3c-0.1-0.5-0.8-0.5-0.9-0.1v0.1C62.2,95.1,63.3,95.1,63.2,94.3L63.2,94.3z"/>
		</g>
	</g>
	<g>
		<g>
			<path class="st2" d="M62.2,97C62.2,97,62.2,96.9,62.2,97c-0.1-0.4-0.3-0.6-0.6-0.6h-0.1c-0.5-0.2-1.1,0.4-0.9,0.9v0.1
				c0.1,0.2,0.3,0.5,0.5,0.5h0.1C61.9,98,62.3,97.5,62.2,97L62.2,97z"/>
		</g>
	</g>
	<g>
		<g>
			<path class="st2" d="M63.2,104.7c0.2,0,0.2-0.4,0-0.4C62.9,104.4,62.9,104.7,63.2,104.7L63.2,104.7z"/>
		</g>
	</g>
	<g>
		<g>
			<path class="st2" d="M63,105.5c1.2,0,1.2-1.9,0-1.9C61.8,103.6,61.8,105.5,63,105.5L63,105.5z"/>
		</g>
	</g>
	<g>
		<g>
			<path class="st2" d="M66.2,111.1c0.8,0,0.8-1.3,0-1.3C65.3,109.8,65.3,111.1,66.2,111.1L66.2,111.1z"/>
		</g>
	</g>
	<g>
		<g>
			<path class="st2" d="M65.8,114C65.8,113.9,65.8,113.9,65.8,114c0.3-0.3,0.3-0.7,0.1-1c0,0-0.1,0-0.1-0.1
				c-0.4-0.4-1.2-0.1-1.2,0.5C64.6,114.1,65.3,114.4,65.8,114L65.8,114z"/>
		</g>
	</g>
	<g>
		<g>
			<path class="st2" d="M67.2,116.6c0.8,0,0.8-1.3,0-1.3C66.4,115.4,66.4,116.6,67.2,116.6L67.2,116.6z"/>
		</g>
	</g>
	<g>
		<g>
			<path class="st2" d="M71.3,122.5c0.8,0,0.8-1.2,0-1.2S70.5,122.5,71.3,122.5L71.3,122.5z"/>
		</g>
	</g>
	<g>
		<g>
			<path class="st2" d="M72.1,124.6c0.8,0,0.8-1.3,0-1.3C71.2,123.3,71.2,124.6,72.1,124.6L72.1,124.6z"/>
		</g>
	</g>
	<g>
		<g>
			<path class="st2" d="M74.2,125.4c0.1,0,0.1,0,0.2,0c0.3,0,0.3-0.5,0-0.5c-0.1,0-0.1,0-0.2,0C73.9,125,73.9,125.4,74.2,125.4
				L74.2,125.4z"/>
		</g>
	</g>
	<g>
		<g>
			<path class="st2" d="M82.6,131.1c1.1,0,1.1-1.6,0-1.6S81.5,131.1,82.6,131.1L82.6,131.1z"/>
		</g>
	</g>
	<g>
		<g>
			<path class="st2" d="M86.2,131.1C86.2,131.1,86.1,131.1,86.2,131.1c-0.3-0.2-0.6-0.2-0.8,0c0,0,0,0-0.1,0
				c-0.7,0.5-0.4,1.6,0.4,1.6C86.6,132.7,86.9,131.5,86.2,131.1L86.2,131.1z"/>
		</g>
	</g>
	<g>
		<g>
			<path class="st2" d="M80.3,125C80.3,125,80.3,124.9,80.3,125c-0.3-0.6-0.9-0.6-1.1-0.1c0,0,0,0.1-0.1,0.1
				C78.8,126,80.7,126,80.3,125L80.3,125z"/>
		</g>
	</g>
	<g>
		<g>
			<path class="st2" d="M78.1,121.5c0.9,0,0.9-1.4,0-1.4S77.2,121.5,78.1,121.5L78.1,121.5z"/>
		</g>
	</g>
	<g>
		<g>
			<path class="st2" d="M87.4,120.7c0.8,0,0.8-1.2,0-1.2C86.7,119.5,86.7,120.7,87.4,120.7L87.4,120.7z"/>
		</g>
	</g>
	<g>
		<g>
			<path class="st2" d="M83.8,120.2c0.9,0,0.9-1.4,0-1.4C82.9,118.7,82.9,120.2,83.8,120.2L83.8,120.2z"/>
		</g>
	</g>
	<g>
		<g>
			<path class="st2" d="M90.4,120.2c1.3,0,1.3-2,0-2S89.1,120.2,90.4,120.2L90.4,120.2z"/>
		</g>
	</g>
	<g>
		<g>
			<path class="st2" d="M89.4,116.1c1,0,1-1.6,0-1.6C88.3,114.4,88.3,116.1,89.4,116.1L89.4,116.1z"/>
		</g>
	</g>
	<g>
		<g>
			<path class="st2" d="M86.4,115.6c0.4,0,0.4-0.7,0-0.7C85.9,114.9,85.9,115.6,86.4,115.6L86.4,115.6z"/>
		</g>
	</g>
	<g>
		<g>
			<path class="st2" d="M90,108.6C90,108.7,90,108.7,90,108.6c-0.2,0.3-0.3,0.6-0.1,0.8c0,0,0,0.1,0.1,0.1c0.3,0.4,1,0.1,1-0.4
				S90.4,108.2,90,108.6L90,108.6z"/>
		</g>
	</g>
	<g>
		<g>
			<path class="st2" d="M86.9,104c-0.1-0.2-0.2-0.3-0.4-0.3c-0.3-0.1-0.6,0.2-0.5,0.5c0.1,0.2,0.2,0.3,0.3,0.4
				C86.6,104.9,87.1,104.4,86.9,104L86.9,104z"/>
		</g>
	</g>
	<g>
		<g>
			<path class="st2" d="M81.1,106.2c1.3,0,1.3-2.1,0-2.1C79.8,104.1,79.8,106.2,81.1,106.2L81.1,106.2z"/>
		</g>
	</g>
	<g>
		<g>
			<path class="st2" d="M83.2,101.3c0.8,0,0.8-1.3,0-1.3C82.4,100,82.4,101.3,83.2,101.3L83.2,101.3z"/>
		</g>
	</g>
	<g>
		<g>
			<path class="st2" d="M88.9,127.1c0.8,0,1.4-0.7,1.4-1.4c0-0.8-0.6-1.4-1.4-1.4s-1.4,0.7-1.4,1.4S88.2,127.1,88.9,127.1
				L88.9,127.1z"/>
		</g>
	</g>
	<g>
		<g>
			<path class="st2" d="M88.3,123.1c0.8,0,0.8-1.2,0-1.2C87.6,121.9,87.6,123.1,88.3,123.1L88.3,123.1z"/>
		</g>
	</g>
	<g>
		<g>
			<path class="st2" d="M86.8,128.6c0.8,0,0.8-1.2,0-1.2C86.1,127.5,86.1,128.6,86.8,128.6L86.8,128.6z"/>
		</g>
	</g>
	<g>
		<g>
			<path class="st2" d="M90.4,134.7c0.8,0,0.8-1.2,0-1.2C89.7,133.5,89.7,134.7,90.4,134.7L90.4,134.7z"/>
		</g>
	</g>
	<g>
		<g>
			<path class="st2" d="M88.2,133.1c0.3,0,0.3-0.5,0-0.5C87.8,132.6,87.8,133.1,88.2,133.1L88.2,133.1z"/>
		</g>
	</g>
	<g>
		<g>
			<path class="st2" d="M93.1,132.9c0,0,0-0.1,0.1-0.1c-0.1,0.1-0.2,0.2-0.3,0.2c0.3-0.1,0.4-0.3,0.5-0.6c0.4-1.1-1.8-1.1-1.4,0
				c0.1,0.3,0.2,0.5,0.5,0.6c-0.1-0.1-0.2-0.2-0.3-0.2c0,0,0,0.1,0.1,0.1C92.4,133.2,92.9,133.2,93.1,132.9L93.1,132.9z"/>
		</g>
	</g>
	<g>
		<g>
			<path class="st2" d="M93,130.6c0.4,0,0.4-0.6,0-0.6S92.6,130.6,93,130.6L93,130.6z"/>
		</g>
	</g>
	<g>
		<g>
			<path class="st2" d="M95.6,127.2C95.6,127.2,95.6,127.3,95.6,127.2c-0.2,0.3-0.2,0.5-0.1,0.7c0,0,0,0.1,0.1,0.1
				c0.3,0.4,0.9,0.1,0.9-0.4C96.5,127.2,95.9,126.8,95.6,127.2L95.6,127.2z"/>
		</g>
	</g>
	<g>
		<g>
			<path class="st2" d="M95.1,119.6C95,119.6,95,119.6,95.1,119.6c-0.8-0.8-2-0.3-2,0.7s1.2,1.5,1.9,0.8c0,0,0.1,0,0.1-0.1
				C95.5,120.7,95.5,120,95.1,119.6L95.1,119.6z"/>
		</g>
	</g>
	<g>
		<g>
			<path class="st2" d="M94.5,122.7c0.5,0,0.5-0.8,0-0.8C94,121.9,94,122.7,94.5,122.7L94.5,122.7z"/>
		</g>
	</g>
	<g>
		<g>
			<path class="st2" d="M95.3,115c0.9,0,0.9-1.4,0-1.4C94.4,113.7,94.4,115,95.3,115L95.3,115z"/>
		</g>
	</g>
	<g>
		<g>
			<path class="st2" d="M96,117.4c0.8,0,0.8-1.3,0-1.3S95.2,117.4,96,117.4L96,117.4z"/>
		</g>
	</g>
	<g>
		<g>
			<path class="st2" d="M100.2,116.8c1,0,1-1.6,0-1.6C99.2,115.2,99.2,116.8,100.2,116.8L100.2,116.8z"/>
		</g>
	</g>
	<g>
		<g>
			<path class="st2" d="M69.8,91.9c0.8,0,0.8-1.3,0-1.3C69,90.7,69,91.9,69.8,91.9L69.8,91.9z"/>
		</g>
	</g>
	<g>
		<g>
			<path class="st2" d="M66.5,97.6c1.2,0,1.2-1.8,0-1.8C65.3,95.8,65.3,97.6,66.5,97.6L66.5,97.6z"/>
		</g>
	</g>
	<g>
		<g>
			<path class="st2" d="M71.2,79.8c1,0,1-1.5,0-1.5C70.2,78.4,70.2,79.8,71.2,79.8L71.2,79.8z"/>
		</g>
	</g>
	<g>
		<g>
			<path class="st2" d="M71.8,82c0.8,0,0.8-1.2,0-1.2S71,82,71.8,82L71.8,82z"/>
		</g>
	</g>
	<g>
		<g>
			<path class="st2" d="M74.5,78.1c1.1,0,1.1-1.7,0-1.7C73.4,76.5,73.4,78.1,74.5,78.1L74.5,78.1z"/>
		</g>
	</g>
	<g>
		<g>
			<path class="st2" d="M77.3,71.6c0.5,0,0.5-0.8,0-0.8C76.8,70.9,76.8,71.6,77.3,71.6L77.3,71.6z"/>
		</g>
	</g>
	<g>
		<g>
			<path class="st2" d="M78.8,70.2c0.9,0,0.9-1.4,0-1.4C77.9,68.8,77.9,70.2,78.8,70.2L78.8,70.2z"/>
		</g>
	</g>
	<g>
		<g>
			<path class="st2" d="M83.7,67.8c1,0,1-1.5,0-1.5S82.7,67.8,83.7,67.8L83.7,67.8z"/>
		</g>
	</g>
	<g>
		<g>
			<path class="st2" d="M86.5,67.6c0.9,0,0.9-1.4,0-1.4S85.6,67.6,86.5,67.6L86.5,67.6z"/>
		</g>
	</g>
	<g>
		<g>
			<path class="st2" d="M90.3,69.4c1.1,0,1.1-1.7,0-1.7C89.2,67.7,89.2,69.4,90.3,69.4L90.3,69.4z"/>
		</g>
	</g>
	<g>
		<g>
			<path class="st2" d="M92.9,70C92.9,70,92.8,70,92.9,70c-0.6-0.1-1,0.3-0.9,0.8v0.1c0.1,0.5,0.8,0.7,1.2,0.3S93.4,70.1,92.9,70
				L92.9,70z"/>
		</g>
	</g>
	<g>
		<g>
			<path class="st2" d="M87.4,66.3c0.6,0,0.6-0.9,0-0.9S86.8,66.3,87.4,66.3L87.4,66.3z"/>
		</g>
	</g>
	<g>
		<g>
			<path class="st2" d="M88.9,61.8c1,0,1-1.5,0-1.5C88,60.3,88,61.8,88.9,61.8L88.9,61.8z"/>
		</g>
	</g>
	<g>
		<g>
			<path class="st2" d="M88.6,63.5L88.6,63.5c0.4-0.1,0.5-0.6,0.3-0.8s-0.7-0.1-0.8,0.2V63C88,63.3,88.3,63.6,88.6,63.5L88.6,63.5z"
				/>
		</g>
	</g>
	<g>
		<g>
			<path class="st2" d="M84.7,62.4L84.7,62.4c-0.1-0.5-0.7-0.5-0.9-0.1v0.1C83.5,63.2,85,63.2,84.7,62.4L84.7,62.4z"/>
		</g>
	</g>
	<g>
		<g>
			<path class="st2" d="M83.2,60.3c0.6,0,0.6-1,0-1S82.6,60.3,83.2,60.3L83.2,60.3z"/>
		</g>
	</g>
	<g>
		<g>
			<path class="st2" d="M83.1,58.8c1,0,1-1.6,0-1.6C82,57.2,82,58.8,83.1,58.8L83.1,58.8z"/>
		</g>
	</g>
	<g>
		<g>
			<path class="st2" d="M85.5,57.3c1,0,1-1.6,0-1.6C84.4,55.7,84.4,57.3,85.5,57.3L85.5,57.3z"/>
		</g>
	</g>
	<g>
		<g>
			<path class="st2" d="M76.6,62.9c0.8,0,0.8-1.3,0-1.3C75.7,61.6,75.7,62.9,76.6,62.9L76.6,62.9z"/>
		</g>
	</g>
	<g>
		<g>
			<path class="st2" d="M73.7,66.3c1.1,0,1.1-1.7,0-1.7C72.6,64.5,72.6,66.3,73.7,66.3L73.7,66.3z"/>
		</g>
	</g>
	<g>
		<g>
			<path class="st2" d="M79.3,66.4c0.6,0,0.6-0.9,0-0.9C78.7,65.6,78.7,66.4,79.3,66.4L79.3,66.4z"/>
		</g>
	</g>
	<g>
		<g>
			<path class="st2" d="M68.5,72.6c0-0.1,0-0.1,0-0.2c-0.1,0.1-0.1,0.2-0.2,0.3C68.4,72.8,68.4,72.7,68.5,72.6
				c0.3-0.1,0.4-0.6,0.2-1c0-0.1,0-0.1-0.1-0.2c-0.3-0.7-1.3-0.3-1.3,0.4c0,0.1,0,0.1,0,0.2c0,0.4,0.4,0.7,0.8,0.8c0,0,0,0,0.1,0
				c-0.1-0.1-0.2-0.1-0.3-0.2c0,0.1,0.1,0.1,0.1,0.2C68,73.1,68.5,72.9,68.5,72.6L68.5,72.6z"/>
		</g>
	</g>
	<g>
		<g>
			<path class="st2" d="M66.2,75.7c1.1,0,1.1-1.7,0-1.7S65.1,75.7,66.2,75.7L66.2,75.7z"/>
		</g>
	</g>
	<g>
		<g>
			<path class="st2" d="M64.1,79.8c0.9,0,0.9-1.3,0-1.3C63.2,78.4,63.2,79.8,64.1,79.8L64.1,79.8z"/>
		</g>
	</g>
	<g>
		<g>
			<path class="st2" d="M80.5,112.8c0.7,0,0.7-1.1,0-1.1C79.8,111.7,79.8,112.8,80.5,112.8L80.5,112.8z"/>
		</g>
	</g>
	<g>
		<g>
			<path class="st2" d="M80.3,123.3C80.3,123.3,80.4,123.3,80.3,123.3c0.3-0.2,0.3-0.5,0.1-0.7c0,0-0.1,0-0.1-0.1
				C79.5,122.1,79.5,123.8,80.3,123.3L80.3,123.3z"/>
		</g>
	</g>
	<g>
		<g>
			<path class="st2" d="M94.8,134.6c1.1,0,1.1-1.6,0-1.6C93.7,133,93.7,134.6,94.8,134.6L94.8,134.6z"/>
		</g>
	</g>
	<g>
		<g>
			<path class="st2" d="M97.8,137c1.3,0,1.3-2,0-2S96.5,137,97.8,137L97.8,137z"/>
		</g>
	</g>
	<g>
		<g>
			<path class="st2" d="M101.8,136.9c0-0.3-0.1-0.4-0.2-0.7c-0.4-0.8-1.7-0.1-1.3,0.7c0.1,0.2,0.2,0.3,0.3,0.4
				C101.1,137.7,101.8,137.6,101.8,136.9L101.8,136.9z"/>
		</g>
	</g>
	<g>
		<g>
			<path class="st2" d="M102.3,128.4c1,0,1-1.6,0-1.6C101.3,126.8,101.3,128.4,102.3,128.4L102.3,128.4z"/>
		</g>
	</g>
	<g>
		<g>
			<path class="st2" d="M101.6,125.7c0.8,0,0.8-1.3,0-1.3C100.7,124.4,100.7,125.7,101.6,125.7L101.6,125.7z"/>
		</g>
	</g>
	<g>
		<g>
			<path class="st2" d="M104.6,123.7c0.9,0,0.9-1.3,0-1.3C103.7,122.4,103.7,123.7,104.6,123.7L104.6,123.7z"/>
		</g>
	</g>
	<g>
		<g>
			<path class="st2" d="M106.7,125.3c0.9,0,0.9-1.3,0-1.3C105.8,123.9,105.8,125.3,106.7,125.3L106.7,125.3z"/>
		</g>
	</g>
	<g>
		<g>
			<path class="st2" d="M104.3,121.2c0.8,0,0.8-1.3,0-1.3C103.4,119.9,103.4,121.2,104.3,121.2L104.3,121.2z"/>
		</g>
	</g>
	<g>
		<g>
			<path class="st2" d="M101.3,121.7c0.8,0,0.8-1.2,0-1.2S100.5,121.7,101.3,121.7L101.3,121.7z"/>
		</g>
	</g>
	<g>
		<g>
			<path class="st2" d="M105.6,119.1c0.6,0,0.6-0.9,0-0.9C105.1,118.3,105.1,119.1,105.6,119.1L105.6,119.1z"/>
		</g>
	</g>
	<g>
		<g>
			<path class="st2" d="M110.6,121.1c0.8,0,0.8-1.2,0-1.2C109.8,119.9,109.8,121.1,110.6,121.1L110.6,121.1z"/>
		</g>
	</g>
	<g>
		<g>
			<path class="st2" d="M113,126.4c0.8,0,0.8-1.2,0-1.2C112.2,125.2,112.2,126.4,113,126.4L113,126.4z"/>
		</g>
	</g>
	<g>
		<g>
			<path class="st2" d="M114.6,133.7c0-0.1-0.1-0.2-0.1-0.3s-0.2-0.1-0.2,0s-0.1,0.2-0.1,0.3C114.1,134,114.7,134,114.6,133.7
				L114.6,133.7z"/>
		</g>
	</g>
	<g>
		<g>
			<path class="st2" d="M114.4,133.9c0.6,0,0.6-0.9,0-0.9S113.8,133.9,114.4,133.9L114.4,133.9z"/>
		</g>
	</g>
	<g>
		<g>
			<path class="st2" d="M113.2,135.9v-0.1c-0.2-0.5-0.9-0.5-1.1,0v0.1C111.6,136.9,113.5,136.9,113.2,135.9L113.2,135.9z"/>
		</g>
	</g>
	<g>
		<g>
			<path class="st2" d="M106.1,135.5c1.5,0,1.5-2.3,0-2.3S104.6,135.5,106.1,135.5L106.1,135.5z"/>
		</g>
	</g>
	<g>
		<g>
			<path class="st2" d="M116.9,134.8c1.3,0,1.3-2,0-2S115.6,134.8,116.9,134.8L116.9,134.8z"/>
		</g>
	</g>
	<g>
		<g>
			<path class="st2" d="M118.3,129.3c1,0,1-1.6,0-1.6C117.3,127.7,117.3,129.3,118.3,129.3L118.3,129.3z"/>
		</g>
	</g>
	<g>
		<g>
			<path class="st2" d="M120,131.3c0.8,0,0.8-1.2,0-1.2C119.2,130.2,119.2,131.3,120,131.3L120,131.3z"/>
		</g>
	</g>
	<g>
		<g>
			<path class="st2" d="M122.4,132.5c1,0,1-1.6,0-1.6C121.3,130.9,121.3,132.5,122.4,132.5L122.4,132.5z"/>
		</g>
	</g>
	<g>
		<g>
			<path class="st2" d="M128.2,130.3c1.2,0,1.2-1.9,0-1.9C127,128.5,127,130.3,128.2,130.3L128.2,130.3z"/>
		</g>
	</g>
	<g>
		<g>
			<path class="st2" d="M123.9,124.4c1.3,0,1.3-2.1,0-2.1C122.5,122.3,122.5,124.4,123.9,124.4L123.9,124.4z"/>
		</g>
	</g>
	<g>
		<g>
			<path class="st2" d="M129.9,123.5c0.5,0,0.5-0.8,0-0.8S129.4,123.5,129.9,123.5L129.9,123.5z"/>
		</g>
	</g>
	<g>
		<g>
			<path class="st2" d="M132,125.8C132,125.8,132.1,125.8,132,125.8c0.3-0.2,0.3-0.7,0.1-0.9c0,0-0.1,0-0.1-0.1
				c-0.4-0.3-1.1-0.2-1.1,0.5S131.6,126.1,132,125.8L132,125.8z"/>
		</g>
	</g>
	<g>
		<g>
			<path class="st2" d="M128.7,120.4c1,0,1-1.6,0-1.6S127.7,120.4,128.7,120.4L128.7,120.4z"/>
		</g>
	</g>
	<g>
		<g>
			<path class="st2" d="M125.1,120.9c0.9,0,0.9-1.4,0-1.4S124.2,120.9,125.1,120.9L125.1,120.9z"/>
		</g>
	</g>
	<g>
		<g>
			<path class="st2" d="M121.6,121.3c0.5,0,0.5-0.8,0-0.8C121.1,120.6,121.1,121.3,121.6,121.3L121.6,121.3z"/>
		</g>
	</g>
	<g>
		<g>
			<path class="st2" d="M130.8,117c1.1,0,1.1-1.7,0-1.7S129.7,117,130.8,117L130.8,117z"/>
		</g>
	</g>
	<g>
		<g>
			<path class="st2" d="M133.5,112.9c0.3,0,0.6,0,0.8-0.3c0.1-0.3,0-0.7-0.4-0.8C133.1,111.6,132.8,112.8,133.5,112.9L133.5,112.9z"
				/>
		</g>
	</g>
	<g>
		<g>
			<path class="st2" d="M134.1,110.8c0.7,0,0.7-1.1,0-1.1C133.4,109.7,133.4,110.8,134.1,110.8L134.1,110.8z"/>
		</g>
	</g>
	<g>
		<g>
			<path class="st2" d="M136.1,112.5c0.6,0,0.6-0.9,0-0.9C135.5,111.7,135.5,112.5,136.1,112.5L136.1,112.5z"/>
		</g>
	</g>
	<g>
		<g>
			<path class="st2" d="M136.5,115.4c0.4,0,0.4-0.6,0-0.6S136.1,115.4,136.5,115.4L136.5,115.4z"/>
		</g>
	</g>
	<g>
		<g>
			<path class="st2" d="M135.6,117.5c0.4,0,0.4-0.6,0-0.6C135.2,116.9,135.2,117.5,135.6,117.5L135.6,117.5z"/>
		</g>
	</g>
	<g>
		<g>
			<path class="st2" d="M136.5,121.8c1,0,1-1.6,0-1.6C135.5,120.2,135.5,121.8,136.5,121.8L136.5,121.8z"/>
		</g>
	</g>
	<g>
		<g>
			<path class="st2" d="M139.8,118c0.8,0,0.8-1.3,0-1.3S139,118,139.8,118L139.8,118z"/>
		</g>
	</g>
	<g>
		<g>
			<path class="st2" d="M141.9,114.1c0.8,0,0.8-1.3,0-1.3C141.1,112.8,141.1,114.1,141.9,114.1L141.9,114.1z"/>
		</g>
	</g>
	<g>
		<g>
			<path class="st2" d="M139.2,112c0.5,0,0.5-0.8,0-0.8S138.7,112,139.2,112L139.2,112z"/>
		</g>
	</g>
	<g>
		<g>
			<path class="st2" d="M141,108.2c1.1,0,1.1-1.8,0-1.8C139.9,106.4,139.9,108.2,141,108.2L141,108.2z"/>
		</g>
	</g>
	<g>
		<g>
			<path class="st2" d="M143.5,108.4c0,0,0,0.1,0.1,0.1c0.1,0.2,0.5,0.2,0.6,0c0,0,0-0.1,0.1-0.1
				C144.7,107.6,143.1,107.6,143.5,108.4L143.5,108.4z"/>
		</g>
	</g>
	<g>
		<g>
			<path class="st2" d="M139.4,105.2c0.8,0,0.8-1.3,0-1.3C138.6,103.9,138.6,105.2,139.4,105.2L139.4,105.2z"/>
		</g>
	</g>
	<g>
		<g>
			<path class="st2" d="M136.7,105.8h0.1c0.9-0.1,0.9-1.5,0.1-1.8c-0.9-0.4-1.6,0.6-1.2,1.4v0.1
				C135.9,105.8,136.4,105.9,136.7,105.8L136.7,105.8z"/>
		</g>
	</g>
	<g>
		<g>
			<path class="st2" d="M141.9,101.5c0,0,0-0.1-0.1-0.1c-0.2-0.4-0.9-0.4-1.1,0c0,0,0,0.1-0.1,0.1c-0.2,0.5,0.1,1.1,0.6,1.1
				C141.9,102.5,142.2,102,141.9,101.5L141.9,101.5z"/>
		</g>
	</g>
	<g>
		<g>
			<path class="st2" d="M145.4,97.7c0.2,0.1,0.3,0.1,0.4,0.1c0.8,0.1,0.8-1.3,0-1.2c-0.2,0-0.3,0-0.4,0.1
				C144.9,96.8,144.9,97.5,145.4,97.7L145.4,97.7z"/>
		</g>
	</g>
	<g>
		<g>
			<path class="st2" d="M143.8,101.1c0,0,0-0.1,0.1-0.1c0.2-0.4-0.6-0.4-0.5,0c0,0,0,0.1,0.1,0.1
				C143.5,101.3,143.7,101.3,143.8,101.1L143.8,101.1z"/>
		</g>
	</g>
	<g>
		<g>
			<path class="st2" d="M71.8,98.7c0.8,0,0.8-1.2,0-1.2S71,98.7,71.8,98.7L71.8,98.7z"/>
		</g>
	</g>
	<g>
		<g>
			<path class="st2" d="M73.4,101.1c1,0,1-1.6,0-1.6S72.4,101.1,73.4,101.1L73.4,101.1z"/>
		</g>
	</g>
	<g>
		<g>
			<path class="st2" d="M69.3,100.8c0.2-0.5-0.6-0.8-0.8-0.4C68.2,101,69.1,101.4,69.3,100.8L69.3,100.8z"/>
		</g>
	</g>
	<g>
		<g>
			<path class="st2" d="M92.5,90.7c1.1,0,1.1-1.7,0-1.7C91.4,88.9,91.4,90.7,92.5,90.7L92.5,90.7z"/>
		</g>
	</g>
	<g>
		<g>
			<path class="st2" d="M95,91.8c0.1-0.3,0.1-0.5-0.1-0.8c-0.3-0.4-0.8-0.4-1.1,0c-0.2,0.3-0.2,0.5-0.1,0.8
				C93.9,92.4,94.8,92.4,95,91.8L95,91.8z"/>
		</g>
	</g>
	<g>
		<g>
			<path class="st2" d="M93.9,88.3c0.8,0,0.8-1.2,0-1.2C93.1,87.1,93.1,88.3,93.9,88.3L93.9,88.3z"/>
		</g>
	</g>
	<g>
		<g>
			<path class="st2" d="M95.1,86c0.5,0,0.5-0.8,0-0.8S94.6,86,95.1,86L95.1,86z"/>
		</g>
	</g>
	<g>
		<g>
			<path class="st2" d="M96.3,88c0.6,0,0.6-0.9,0-0.9C95.7,87.1,95.7,88,96.3,88L96.3,88z"/>
		</g>
	</g>
	<g>
		<g>
			<path class="st2" d="M97.7,89.2c0.6,0,0.6-1,0-1C97,88.3,97,89.2,97.7,89.2L97.7,89.2z"/>
		</g>
	</g>
	<g>
		<g>
			<path class="st2" d="M99.1,90.4C99.1,90.4,99.2,90.4,99.1,90.4c0.2-0.2,0.2-0.3,0.1-0.4c0,0-0.1,0-0.1-0.1
				C98.7,89.9,98.7,90.6,99.1,90.4L99.1,90.4z"/>
		</g>
	</g>
	<g>
		<g>
			<path class="st2" d="M100.7,90.5c0.2,0,0.2-0.3,0-0.3C100.5,90.3,100.5,90.5,100.7,90.5L100.7,90.5z"/>
		</g>
	</g>
	<g>
		<g>
			<path class="st2" d="M101.1,91.3c0.9,0,0.9-1.4,0-1.4C100.1,89.9,100.1,91.3,101.1,91.3L101.1,91.3z"/>
		</g>
	</g>
	<g>
		<g>
			<path class="st2" d="M104,93.2c1.4,0,1.4-2.2,0-2.2S102.6,93.2,104,93.2L104,93.2z"/>
		</g>
	</g>
	<g>
		<g>
			<path class="st2" d="M107.3,95L107.3,95c0.4-1.4-2-1.4-1.6-0.1V95C106,95.7,107.1,95.7,107.3,95L107.3,95z"/>
		</g>
	</g>
	<g>
		<g>
			<path class="st2" d="M102.9,99.4c0.9,0,0.9-1.4,0-1.4S102,99.4,102.9,99.4L102.9,99.4z"/>
		</g>
	</g>
	<g>
		<g>
			<path class="st2" d="M103.4,101.4L103.4,101.4c0.2-0.5-0.3-0.9-0.7-0.8h-0.1c-0.5,0.1-0.6,0.7-0.3,1.1
				C102.7,102,103.3,101.9,103.4,101.4L103.4,101.4z"/>
		</g>
	</g>
	<g>
		<g>
			<path class="st2" d="M97.5,97.4c0.9,0,0.9-1.4,0-1.4S96.6,97.4,97.5,97.4L97.5,97.4z"/>
		</g>
	</g>
	<g>
		<g>
			<path class="st2" d="M104.3,103.2c0.4,0,0.4-0.7,0-0.7C103.9,102.6,103.9,103.2,104.3,103.2L104.3,103.2z"/>
		</g>
	</g>
	<g>
		<g>
			<path class="st2" d="M106.2,103.7c0.6,0,0.6-1,0-1S105.6,103.7,106.2,103.7L106.2,103.7z"/>
		</g>
	</g>
	<g>
		<g>
			<path class="st2" d="M109.9,103c0.7,0,0.7-1.1,0-1.1C109.2,101.9,109.2,103,109.9,103L109.9,103z"/>
		</g>
	</g>
	<g>
		<g>
			<path class="st2" d="M111.6,99.1L111.6,99.1c-1.4-0.3-1.4,1.9-0.1,1.6h0.1C112.3,100.5,112.3,99.3,111.6,99.1L111.6,99.1z"/>
		</g>
	</g>
	<g>
		<g>
			<path class="st2" d="M114.1,101.6c1.2,0,1.2-1.9,0-1.9S112.9,101.6,114.1,101.6L114.1,101.6z"/>
		</g>
	</g>
	<g>
		<g>
			<path class="st2" d="M115.6,95.4c0.8,0,0.8-1.2,0-1.2C114.8,94.2,114.8,95.4,115.6,95.4L115.6,95.4z"/>
		</g>
	</g>
	<g>
		<g>
			<path class="st2" d="M108.7,92.2c0.8,0,0.8-1.2,0-1.2C107.9,91,107.9,92.2,108.7,92.2L108.7,92.2z"/>
		</g>
	</g>
	<g>
		<g>
			<path class="st2" d="M107,89.1c0.3,0,0.3-0.5,0-0.5S106.7,89.1,107,89.1L107,89.1z"/>
		</g>
	</g>
	<g>
		<g>
			<path class="st2" d="M111.8,88.8c1.3,0,1.3-1.9,0-1.9C110.6,86.9,110.6,88.8,111.8,88.8L111.8,88.8z"/>
		</g>
	</g>
	<g>
		<g>
			<path class="st2" d="M113.9,85.9C113.9,85.9,113.9,85.8,113.9,85.9c-0.3-0.4-0.6-0.4-0.8-0.1c0,0,0,0.1-0.1,0.1
				c-0.2,0.3,0.1,0.7,0.4,0.7S114.1,86.2,113.9,85.9L113.9,85.9z"/>
		</g>
	</g>
	<g>
		<g>
			<path class="st2" d="M115.2,79.9c-0.8-0.3-1.4,1-0.6,1.4C115.5,81.8,116.3,80.3,115.2,79.9L115.2,79.9z"/>
		</g>
	</g>
	<g>
		<g>
			<path class="st2" d="M111.5,81c0.8,0,0.8-1.3,0-1.3C110.7,79.6,110.7,81,111.5,81L111.5,81z"/>
		</g>
	</g>
	<g>
		<g>
			<path class="st2" d="M110.3,78.5c0.8,0,0.8-1.2,0-1.2S109.5,78.5,110.3,78.5L110.3,78.5z"/>
		</g>
	</g>
	<g>
		<g>
			<path class="st2" d="M94.8,75.9c0.9,0,0.9-1.5,0-1.5C93.9,74.5,93.9,75.9,94.8,75.9L94.8,75.9z"/>
		</g>
	</g>
	<g>
		<g>
			<path class="st2" d="M117.5,57.1C117.6,57.1,117.6,57.1,117.5,57.1L117.5,57.1L117.5,57.1z"/>
		</g>
	</g>
	<g>
		<g>
			<path class="st2" d="M117.5,57.4c0.4,0,0.4-0.6,0-0.6C117.2,56.8,117.2,57.4,117.5,57.4L117.5,57.4z"/>
		</g>
	</g>
	<g>
		<g>
			<path class="st2" d="M116.2,58.5c1,0,1-1.6,0-1.6S115.2,58.5,116.2,58.5L116.2,58.5z"/>
		</g>
	</g>
	<g>
		<g>
			<path class="st2" d="M112.9,57.1C112.9,57.1,112.9,57.2,112.9,57.1c0.2,0.2,0.4,0.2,0.5,0.1c0,0,0-0.1,0.1-0.1
				C113.8,56.6,112.6,56.6,112.9,57.1L112.9,57.1z"/>
		</g>
	</g>
	<g>
		<g>
			<path class="st2" d="M108.1,55.5c0.8,0,0.8-1.2,0-1.2C107.3,54.2,107.3,55.5,108.1,55.5L108.1,55.5z"/>
		</g>
	</g>
	<g>
		<g>
			<path class="st2" d="M108.2,60.3c0.4,0,0.4-0.6,0-0.6C107.8,59.7,107.8,60.3,108.2,60.3L108.2,60.3z"/>
		</g>
	</g>
	<g>
		<g>
			<path class="st2" d="M104.3,60C104.3,60,104.3,60.1,104.3,60c0.2,0.1,0.4,0.1,0.5,0c0,0,0,0,0.1,0c0.5-0.3,0.3-1.1-0.3-1.1
				C104,58.9,103.8,59.7,104.3,60L104.3,60z"/>
		</g>
	</g>
	<g>
		<g>
			<path class="st2" d="M101.1,62.4c1.2,0,1.2-1.8,0-1.8C100,60.6,100,62.4,101.1,62.4L101.1,62.4z"/>
		</g>
	</g>
	<g>
		<g>
			<path class="st2" d="M96.9,66.6c0.8,0,0.8-1.2,0-1.2S96.1,66.6,96.9,66.6L96.9,66.6z"/>
		</g>
	</g>
	<g>
		<g>
			<path class="st2" d="M99.5,67.2c0.7,0,0.7-1.1,0-1.1C98.7,66,98.7,67.2,99.5,67.2L99.5,67.2z"/>
		</g>
	</g>
	<g>
		<g>
			<path class="st2" d="M100.5,68.9c0.6,0,0.6-1,0-1S99.9,68.9,100.5,68.9L100.5,68.9z"/>
		</g>
	</g>
	<g>
		<g>
			<path class="st2" d="M100.3,73.6C100.3,73.5,100.3,73.5,100.3,73.6c0.2-0.5-0.3-1-0.7-0.8h-0.1c-0.5,0.2-0.7,0.7-0.3,1.1
				S100.1,74,100.3,73.6L100.3,73.6z"/>
		</g>
	</g>
	<g>
		<g>
			<path class="st2" d="M101.5,76.9c0.8,0,0.8-1.2,0-1.2C100.8,75.7,100.7,76.9,101.5,76.9L101.5,76.9z"/>
		</g>
	</g>
	<g>
		<g>
			<path class="st2" d="M121,93.8c1.2,0,1.2-1.9,0-1.9C119.8,91.8,119.8,93.8,121,93.8L121,93.8z"/>
		</g>
	</g>
	<g>
		<g>
			<path class="st2" d="M124.6,91.7c0.9,0,0.9-1.4,0-1.4C123.7,90.3,123.7,91.7,124.6,91.7L124.6,91.7z"/>
		</g>
	</g>
	<g>
		<g>
			<path class="st2" d="M121,83.9c1.6,0,1.6-2.4,0-2.4C119.5,81.5,119.5,83.9,121,83.9L121,83.9z"/>
		</g>
	</g>
	<g>
		<g>
			<path class="st2" d="M122.4,80c0.7,0,0.7-1.1,0-1.1C121.6,78.8,121.6,80,122.4,80L122.4,80z"/>
		</g>
	</g>
	<g>
		<g>
			<path class="st2" d="M122.4,78.1c0.6,0,0.6-1,0-1C121.7,77.1,121.7,78.1,122.4,78.1L122.4,78.1z"/>
		</g>
	</g>
	<g>
		<g>
			<path class="st2" d="M124.5,76.5c1,0,1-1.5,0-1.5S123.5,76.5,124.5,76.5L124.5,76.5z"/>
		</g>
	</g>
	<g>
		<g>
			<path class="st2" d="M128.1,79.3c1,0,1-1.5,0-1.5C127.1,77.7,127.1,79.3,128.1,79.3L128.1,79.3z"/>
		</g>
	</g>
	<g>
		<g>
			<path class="st2" d="M130.2,84c0.8,0,0.8-1.3,0-1.3S129.4,84,130.2,84L130.2,84z"/>
		</g>
	</g>
	<g>
		<g>
			<path class="st2" d="M126.1,85.3C126.2,85.3,126.2,85.3,126.1,85.3L126.1,85.3L126.1,85.3z"/>
		</g>
	</g>
	<g>
		<g>
			<path class="st2" d="M126.1,86.1c0.7,0,0.7-1.1,0-1.1S125.4,86.1,126.1,86.1L126.1,86.1z"/>
		</g>
	</g>
	<g>
		<g>
			<path class="st2" d="M126.4,89c0.9,0,0.9-1.5,0-1.5C125.5,87.6,125.5,89,126.4,89L126.4,89z"/>
		</g>
	</g>
	<g>
		<g>
			<path class="st2" d="M128.1,90.3c0.9,0,0.9-1.3,0-1.3C127.2,89,127.2,90.3,128.1,90.3L128.1,90.3z"/>
		</g>
	</g>
	<g>
		<g>
			<path class="st2" d="M130.6,94.9c0.8,0,0.8-1.3,0-1.3C129.8,93.7,129.8,94.9,130.6,94.9L130.6,94.9z"/>
		</g>
	</g>
	<g>
		<g>
			<path class="st2" d="M125.7,94.6c0.9,0,0.9-1.4,0-1.4C124.8,93.2,124.8,94.6,125.7,94.6L125.7,94.6z"/>
		</g>
	</g>
	<g>
		<g>
			<path class="st2" d="M125.8,98.7c0.8,0,0.8-1.2,0-1.2C125.1,97.5,125.1,98.7,125.8,98.7L125.8,98.7z"/>
		</g>
	</g>
	<g>
		<g>
			<path class="st2" d="M127.7,101.5C127.7,101.5,127.8,101.5,127.7,101.5c0.3-0.2,0.3-0.6,0.1-0.7c0,0-0.1,0-0.1-0.1
				C126.9,100.3,126.9,101.9,127.7,101.5L127.7,101.5z"/>
		</g>
	</g>
	<g>
		<g>
			<path class="st2" d="M133.2,102.3c1.1,0,1.1-1.7,0-1.7C132.1,100.5,132.1,102.3,133.2,102.3L133.2,102.3z"/>
		</g>
	</g>
	<g>
		<g>
			<path class="st2" d="M134,103.6c0,0,0-0.1-0.1-0.1c-0.1-0.2-0.5-0.2-0.6,0c0,0,0,0.1-0.1,0.1C132.9,104.4,134.5,104.4,134,103.6
				L134,103.6z"/>
		</g>
	</g>
	<g>
		<g>
			<path class="st2" d="M134.2,98.8c0,0,0-0.1-0.1-0.1c-0.1-0.2-0.5-0.2-0.6,0c0,0,0,0.1-0.1,0.1C133,99.5,134.6,99.5,134.2,98.8
				L134.2,98.8z"/>
		</g>
	</g>
	<g>
		<g>
			<path class="st2" d="M133.2,96.3c0.8,0,0.8-1.2,0-1.2C132.5,95.1,132.5,96.3,133.2,96.3L133.2,96.3z"/>
		</g>
	</g>
	<g>
		<g>
			<path class="st2" d="M137.6,99.4l0.1-0.1c0.5-0.3,0.5-1,0-1.3c-0.4-0.3-1.1,0.1-1.1,0.6c0,0.1,0,0.1,0,0.2
				C136.7,99.3,137.2,99.7,137.6,99.4L137.6,99.4z"/>
		</g>
	</g>
	<g>
		<g>
			<path class="st2" d="M140.4,91.1c1.1,0,1.1-1.6,0-1.6C139.3,89.5,139.3,91.1,140.4,91.1L140.4,91.1z"/>
		</g>
	</g>
	<g>
		<g>
			<path class="st2" d="M136.5,81.9c1,0,1-1.6,0-1.6S135.5,81.9,136.5,81.9L136.5,81.9z"/>
		</g>
	</g>
	<g>
		<g>
			<path class="st2" d="M136.7,83.6c0.4,0,0.4-0.6,0-0.6S136.3,83.6,136.7,83.6L136.7,83.6z"/>
		</g>
	</g>
	<g>
		<g>
			<path class="st2" d="M140.7,84.8c0.5,0,0.5-0.8,0-0.8S140.2,84.8,140.7,84.8L140.7,84.8z"/>
		</g>
	</g>
	<g>
		<g>
			<path class="st2" d="M143.4,82.3c1.2,0,1.2-1.8,0-1.8C142.3,80.5,142.3,82.3,143.4,82.3L143.4,82.3z"/>
		</g>
	</g>
	<g>
		<g>
			<path class="st2" d="M140.1,80.6C140.1,80.6,140.1,80.5,140.1,80.6c-0.2-0.2-0.5-0.2-0.6-0.1c0,0,0,0.1-0.1,0.1
				c-0.2,0.3-0.1,0.8,0.3,0.8C140.3,81.4,140.4,80.9,140.1,80.6L140.1,80.6z"/>
		</g>
	</g>
	<g>
		<g>
			<path class="st2" d="M142.1,75.2C142.1,75.1,142.1,75.1,142.1,75.2c-0.2-0.2-0.5-0.2-0.6-0.1c0,0,0,0.1-0.1,0.1
				c-0.2,0.3-0.1,0.8,0.3,0.8C142.2,75.9,142.3,75.5,142.1,75.2L142.1,75.2z"/>
		</g>
	</g>
	<g>
		<g>
			<path class="st2" d="M140,71.4L140,71.4c0.7-0.7,0.2-1.7-0.6-1.7s-1.3,1.1-0.7,1.7c0,0,0,0.1,0.1,0.1
				C139.1,71.8,139.7,71.8,140,71.4L140,71.4z"/>
		</g>
	</g>
	<g>
		<g>
			<path class="st2" d="M137.1,68.3c0.9,0,0.9-1.4,0-1.4C136.2,67,136.2,68.3,137.1,68.3L137.1,68.3z"/>
		</g>
	</g>
	<g>
		<g>
			<path class="st2" d="M131.9,69.5c1,0,1-1.6,0-1.6C130.8,67.9,130.8,69.5,131.9,69.5L131.9,69.5z"/>
		</g>
	</g>
	<g>
		<g>
			<path class="st2" d="M129.5,69.1C129.5,69.1,129.5,69,129.5,69.1c-0.2-0.3-0.6-0.3-0.7-0.1c0,0,0,0.1-0.1,0.1
				c-0.3,0.3-0.1,0.9,0.4,0.9C129.6,70,129.8,69.4,129.5,69.1L129.5,69.1z"/>
		</g>
	</g>
	<g>
		<g>
			<path class="st2" d="M128.8,72.2c0.6,0,0.6-1,0-1S128.2,72.2,128.8,72.2L128.8,72.2z"/>
		</g>
	</g>
	<g>
		<g>
			<path class="st2" d="M132.9,73.8c1.1,0,1.1-1.7,0-1.7C131.8,72.1,131.8,73.8,132.9,73.8L132.9,73.8z"/>
		</g>
	</g>
	<g>
		<g>
			<path class="st2" d="M132,63.7c0.3,0,0.5-0.1,0.7-0.2c0.5-0.3,0.6-1.1,0.2-1.5c-0.5-0.5-1.2-0.3-1.5,0.2
				c-0.2,0.2-0.2,0.4-0.2,0.7C131.1,63.2,131.6,63.7,132,63.7L132,63.7z"/>
		</g>
	</g>
	<g>
		<g>
			<path class="st2" d="M135.5,65.5c0.9,0,0.9-1.4,0-1.4S134.6,65.5,135.5,65.5L135.5,65.5z"/>
		</g>
	</g>
	<g>
		<g>
			<path class="st2" d="M116.9,76.1c0.7,0,0.7-1.1,0-1.1C116.2,74.9,116.2,76.1,116.9,76.1L116.9,76.1z"/>
		</g>
	</g>
	<g>
		<g>
			<path class="st2" d="M113.9,75.4c0.4,0,0.4-0.6,0-0.6C113.5,74.7,113.5,75.4,113.9,75.4L113.9,75.4z"/>
		</g>
	</g>
	<g>
		<g>
			<path class="st2" d="M114.2,71c1,0,1-1.5,0-1.5C113.3,69.5,113.3,71,114.2,71L114.2,71z"/>
		</g>
	</g>
	<g>
		<g>
			<path class="st2" d="M117.4,71.4c0.9,0,0.9-1.4,0-1.4S116.5,71.4,117.4,71.4L117.4,71.4z"/>
		</g>
	</g>
	<g>
		<g>
			<path class="st2" d="M118.3,66.8L118.3,66.8c0.1-0.6-0.8-0.7-0.7-0.1v0.1C117.8,67.1,118.2,67.1,118.3,66.8L118.3,66.8z"/>
		</g>
	</g>
	<g>
		<g>
			<path class="st2" d="M122.2,66.3c0.6,0,0.6-0.9,0-0.9C121.7,65.4,121.7,66.3,122.2,66.3L122.2,66.3z"/>
		</g>
	</g>
	<g>
		<g>
			<path class="st2" d="M124.9,65.9c1.3,0,1.3-1.9,0-1.9C123.7,64,123.7,65.9,124.9,65.9L124.9,65.9z"/>
		</g>
	</g>
	<g>
		<g>
			<path class="st2" d="M126,69c1,0,1-1.5,0-1.5S125,69,126,69L126,69z"/>
		</g>
	</g>
	<g>
		<g>
			<path class="st2" d="M122.7,61.7c0.9,0,0.9-1.4,0-1.4C121.8,60.3,121.8,61.7,122.7,61.7L122.7,61.7z"/>
		</g>
	</g>
	<g>
		<g>
			<path class="st2" d="M119.5,60.3c0.7,0,0.7-1,0-1S118.8,60.3,119.5,60.3L119.5,60.3z"/>
		</g>
	</g>
	<g>
		<g>
			<path class="st2" d="M123.4,58.1c1.1,0,1.1-1.7,0-1.7C122.3,56.4,122.3,58.1,123.4,58.1L123.4,58.1z"/>
		</g>
	</g>
	<g>
		<g>
			<path class="st2" d="M129,60.7c1.3,0,1.3-2,0-2S127.7,60.7,129,60.7L129,60.7z"/>
		</g>
	</g>
	<g>
		<g>
			<path class="st2" d="M119.4,54.7c1,0,1-1.5,0-1.5S118.4,54.7,119.4,54.7L119.4,54.7z"/>
		</g>
	</g>
	<g>
		<g>
			<path class="st2" d="M112.3,65c0.2-0.4-0.3-0.9-0.6-0.4C111.4,65,112.1,65.4,112.3,65L112.3,65z"/>
		</g>
	</g>
	<g>
		<g>
			<path class="st2" d="M108.8,68.1c0-0.1,0-0.1,0-0.2c0.1-1-1.6-1-1.5,0c0,0.1,0,0.1,0,0.2C107.4,69.1,108.7,69.1,108.8,68.1
				L108.8,68.1z"/>
		</g>
	</g>
	<g>
		<g>
			<path class="st2" d="M111.1,71.1c0.6,0,0.6-0.9,0-0.9S110.5,71.1,111.1,71.1L111.1,71.1z"/>
		</g>
	</g>
	<g>
		<g>
			<path class="st2" d="M108.7,72.3c0.4,0,0.4-0.6,0-0.6C108.3,71.7,108.2,72.3,108.7,72.3L108.7,72.3z"/>
		</g>
	</g>
	<g>
		<g>
			<path class="st2" d="M109.4,74.3c0.2,0,0.2-0.4,0-0.4C109.2,74,109.2,74.3,109.4,74.3L109.4,74.3z"/>
		</g>
	</g>
	<g>
		<g>
			<path class="st2" d="M106.2,74.6c0.7,0,0.7-1.1,0-1.1C105.5,73.4,105.5,74.6,106.2,74.6L106.2,74.6z"/>
		</g>
	</g>
	<g>
		<g>
			<path class="st2" d="M91.3,53.9c1.1,0,1.1-1.7,0-1.7C90.3,52.2,90.3,53.9,91.3,53.9L91.3,53.9z"/>
		</g>
	</g>
	<g>
		<g>
			<path class="st2" d="M91.8,58c1,0,1-1.5,0-1.5S90.8,58,91.8,58L91.8,58z"/>
		</g>
	</g>
	<g>
		<g>
			<path class="st2" d="M93.3,59.5c0.8,0,0.8-1.2,0-1.2S92.5,59.5,93.3,59.5L93.3,59.5z"/>
		</g>
	</g>
	<g>
		<g>
			<path class="st2" d="M96.9,59.2c0.7,0,0.7-1.1,0-1.1C96.2,58,96.2,59.2,96.9,59.2L96.9,59.2z"/>
		</g>
	</g>
	<g>
		<g>
			<path class="st2" d="M97.2,61.3c0.3,0,0.3-0.4,0-0.4C96.9,60.8,96.9,61.3,97.2,61.3L97.2,61.3z"/>
		</g>
	</g>
	<g>
		<g>
			<path class="st2" d="M95.7,52.4c0.9,0,0.9-1.4,0-1.4C94.8,51,94.8,52.4,95.7,52.4L95.7,52.4z"/>
		</g>
	</g>
	<g>
		<g>
			<path class="st2" d="M105.9,51.5C105.9,51.4,105.9,51.4,105.9,51.5c0.3-0.4,0.4-0.7,0.2-1.1c0,0,0-0.1-0.1-0.1
				c-0.3-0.5-1.1-0.5-1.3,0c0,0,0,0.1-0.1,0.1c-0.2,0.4-0.1,0.7,0.1,1c0,0,0,0.1,0.1,0.1C105,51.8,105.6,51.8,105.9,51.5L105.9,51.5
				z"/>
		</g>
	</g>
	<g>
		<g>
			<path class="st2" d="M99.8,53.4c0.6,0,0.6-1,0-1C99.2,52.4,99.2,53.4,99.8,53.4L99.8,53.4z"/>
		</g>
	</g>
	<g>
		<g>
			<path class="st2" d="M100,50.7C100,50.7,100,50.6,100,50.7c-0.2-0.1-0.3-0.1-0.4,0c0,0,0,0-0.1,0c-0.4,0.2-0.2,0.9,0.2,0.9
				C100.3,51.6,100.4,50.9,100,50.7L100,50.7z"/>
		</g>
	</g>
	<g>
		<g>
			<path class="st2" d="M140.7,73.3c0.7,0,0.7-1,0-1C140.1,72.3,140.1,73.3,140.7,73.3L140.7,73.3z"/>
		</g>
	</g>
	<g>
		<g>
			<path class="st2" d="M134.7,76.7c0.8,0,0.8-1.3,0-1.3C133.9,75.5,133.9,76.7,134.7,76.7L134.7,76.7z"/>
		</g>
	</g>
	<g>
		<g>
			<path class="st2" d="M132.5,80.3c0.7,0,0.7-1.1,0-1.1C131.7,79.1,131.7,80.3,132.5,80.3L132.5,80.3z"/>
		</g>
	</g>
	<g>
		<g>
			<path class="st2" d="M144.7,86.8L144.7,86.8c0.1-0.3,0-0.6-0.3-0.7c0,0,0,0-0.1,0c-0.1-0.1-0.3-0.1-0.4,0c0,0,0,0-0.1,0
				c-0.2,0.1-0.3,0.4-0.3,0.6v0.1C143.8,87.3,144.6,87.3,144.7,86.8L144.7,86.8z"/>
		</g>
	</g>
	<g>
		<g>
			<path class="st2" d="M142.3,92.2c0-0.1,0-0.2,0-0.3c0-0.2-0.3-0.2-0.3,0c0,0.1,0,0.2,0,0.3C142,92.4,142.2,92.4,142.3,92.2
				L142.3,92.2z"/>
		</g>
	</g>
	<g>
		<g>
			<path class="st2" d="M144.4,93.6c0.8,0,0.8-1.2,0-1.2C143.6,92.3,143.6,93.6,144.4,93.6L144.4,93.6z"/>
		</g>
	</g>
	<g>
		<g>
			<path class="st2" d="M148.2,92L148.2,92c-0.3-0.9-1.3-0.9-1.6-0.1V92c-0.2,0.5,0.3,1.1,0.8,1.1S148.4,92.5,148.2,92L148.2,92z"/>
		</g>
	</g>
	<g>
		<g>
			<path class="st2" d="M146,103.1c0.1,0,0.1,0,0.2,0c1,0,1-1.5,0-1.5c-0.1,0-0.1,0-0.2,0C145,101.5,145,103.1,146,103.1L146,103.1z
				"/>
		</g>
	</g>
	<g>
		<g>
			<path class="st2" d="M95.1,80.4c1.2,0,1.2-1.9,0-1.9S93.9,80.4,95.1,80.4L95.1,80.4z"/>
		</g>
	</g>
	<g>
		<g>
			<path class="st2" d="M80.9,69.6c1.3,0,1.3-2,0-2S79.6,69.6,80.9,69.6L80.9,69.6z"/>
		</g>
	</g>
	<g>
		<g>
			<path class="st1" d="M80.4,95.9c0.9,0,0.9-1.4,0-1.4S79.5,95.9,80.4,95.9L80.4,95.9z"/>
		</g>
	</g>
	<g>
		<g>
			<path class="st1" d="M85.8,102.6c1.1,0,1.1-1.7,0-1.7C84.7,100.9,84.7,102.6,85.8,102.6L85.8,102.6z"/>
		</g>
	</g>
	<g>
		<g>
			<path class="st1" d="M89,106.2c1.2,0,1.2-1.8,0-1.8C87.9,104.3,87.9,106.2,89,106.2L89,106.2z"/>
		</g>
	</g>
	<g>
		<g>
			<path class="st1" d="M90.6,107.8c0.8,0,0.8-1.3,0-1.3C89.8,106.5,89.8,107.8,90.6,107.8L90.6,107.8z"/>
		</g>
	</g>
	<g>
		<g>
			<path class="st1" d="M93.1,109.9C93.1,109.9,93.1,109.8,93.1,109.9c0.3-0.5,0-1.1-0.5-1.1s-0.9,0.6-0.6,1c0,0,0,0,0,0.1
				C92.3,110.3,92.8,110.3,93.1,109.9L93.1,109.9z"/>
		</g>
	</g>
	<g>
		<g>
			<path class="st1" d="M90.1,111c0.2,0,0.2-0.3,0-0.3C90,110.8,90,111,90.1,111L90.1,111z"/>
		</g>
	</g>
	<g>
		<g>
			<path class="st1" d="M96.8,112.7c0.7,0,0.7-1.1,0-1.1C96.1,111.6,96,112.7,96.8,112.7L96.8,112.7z"/>
		</g>
	</g>
	<g>
		<g>
			<path class="st1" d="M99.5,114.4c0.7,0,0.7-1.1,0-1.1S98.8,114.4,99.5,114.4L99.5,114.4z"/>
		</g>
	</g>
	<g>
		<g>
			<path class="st1" d="M102.8,116.4c1.1,0,1.1-1.8,0-1.8C101.6,114.6,101.6,116.4,102.8,116.4L102.8,116.4z"/>
		</g>
	</g>
	<g>
		<g>
			<path class="st1" d="M107,118.4c1.1,0,1.1-1.7,0-1.7C105.9,116.6,105.9,118.4,107,118.4L107,118.4z"/>
		</g>
	</g>
	<g>
		<g>
			<path class="st1" d="M112.7,120.8c1.1,0,1.1-1.8,0-1.8S111.6,120.8,112.7,120.8L112.7,120.8z"/>
		</g>
	</g>
	<g>
		<g>
			<path class="st1" d="M116.9,121.1c1.3,0,1.3-2,0-2C115.7,119.1,115.7,121.1,116.9,121.1L116.9,121.1z"/>
		</g>
	</g>
	<g>
		<g>
			<path class="st1" d="M117.8,123c0.7,0,0.7-1.1,0-1.1C117.2,121.9,117.2,123,117.8,123L117.8,123z"/>
		</g>
	</g>
	<g>
		<g>
			<path class="st1" d="M119.6,121c1,0,1-1.6,0-1.6C118.5,119.4,118.5,121,119.6,121L119.6,121z"/>
		</g>
	</g>
	<g>
		<g>
			<path class="st1" d="M123,120.3c0.9,0,0.9-1.4,0-1.4S122.1,120.3,123,120.3L123,120.3z"/>
		</g>
	</g>
	<g>
		<g>
			<path class="st1" d="M128.2,120.4c1.4,0,1.4-2.2,0-2.2C126.8,118.2,126.8,120.4,128.2,120.4L128.2,120.4z"/>
		</g>
	</g>
	<g>
		<g>
			<path class="st1" d="M128.7,117.5c0.8,0,0.8-1.3,0-1.3C127.8,116.1,127.8,117.5,128.7,117.5L128.7,117.5z"/>
		</g>
	</g>
	<g>
		<g>
			<path class="st1" d="M132,114.1c1,0,1-1.6,0-1.6S131,114.1,132,114.1L132,114.1z"/>
		</g>
	</g>
	<g>
		<g>
			<path class="st1" d="M134,111.2c1,0,1-1.6,0-1.6S133,111.2,134,111.2L134,111.2z"/>
		</g>
	</g>
	<g>
		<g>
			<path class="st1" d="M132.1,108.7C132.2,108.7,132.2,108.7,132.1,108.7c1.2,0.2,1.2-1.5,0.1-1.3h-0.1
				C131.5,107.5,131.5,108.6,132.1,108.7L132.1,108.7z"/>
		</g>
	</g>
	<g>
		<g>
			<path class="st1" d="M127.5,103.5c1.1,0,1.1-1.7,0-1.7C126.4,101.8,126.4,103.5,127.5,103.5L127.5,103.5z"/>
		</g>
	</g>
	<g>
		<g>
			<path class="st1" d="M124.3,102.2c0.5,0,0.5-0.8,0-0.8C123.7,101.3,123.7,102.2,124.3,102.2L124.3,102.2z"/>
		</g>
	</g>
	<g>
		<g>
			<path class="st1" d="M122.6,101.1c0.7,0,0.7-1.1,0-1.1S121.9,101.1,122.6,101.1L122.6,101.1z"/>
		</g>
	</g>
	<g>
		<g>
			<path class="st1" d="M119.2,99.2L119.2,99.2c-0.3-0.8-1.3-0.3-1,0.3c0,0,0,0.1,0.1,0.1C118.6,100.1,119.5,99.8,119.2,99.2
				L119.2,99.2z"/>
		</g>
	</g>
	<g>
		<g>
			<path class="st1" d="M117.5,97.4c0.6,0,0.6-0.9,0-0.9C117,96.5,117,97.4,117.5,97.4L117.5,97.4z"/>
		</g>
	</g>
	<g>
		<g>
			<path class="st1" d="M119.8,95.4c0.5,0,0.5-0.7,0-0.7C119.3,94.7,119.3,95.4,119.8,95.4L119.8,95.4z"/>
		</g>
	</g>
	<g>
		<g>
			<path class="st1" d="M123.2,95.7c1,0,1-1.5,0-1.5S122.2,95.7,123.2,95.7L123.2,95.7z"/>
		</g>
	</g>
	<g>
		<g>
			<path class="st1" d="M106.3,104.6c1,0,1-1.5,0-1.5S105.3,104.6,106.3,104.6L106.3,104.6z"/>
		</g>
	</g>
	<g>
		<g>
			<path class="st1" d="M103.9,103.5c0.8,0,0.8-1.3,0-1.3C103,102.2,103,103.5,103.9,103.5L103.9,103.5z"/>
		</g>
	</g>
	<g>
		<g>
			<path class="st1" d="M100.5,100.9c0.9,0,0.9-1.4,0-1.4C99.6,99.6,99.6,100.9,100.5,100.9L100.5,100.9z"/>
		</g>
	</g>
	<g>
		<g>
			<path class="st1" d="M99,98.7C98.9,98.7,98.9,98.7,99,98.7c-0.2-0.2-0.5-0.2-0.7-0.1c0,0,0,0,0,0.1c-0.3,0.3-0.1,0.9,0.4,0.9
				C99,99.7,99.3,99.1,99,98.7L99,98.7z"/>
		</g>
	</g>
	<g>
		<g>
			<path class="st1" d="M95.2,95.9c0.8,0,0.8-1.3,0-1.3C94.3,94.7,94.3,95.9,95.2,95.9L95.2,95.9z"/>
		</g>
	</g>
	<g>
		<g>
			<path class="st1" d="M93.2,94.2c0.7,0,0.7-1.1,0-1.1C92.6,93.2,92.6,94.2,93.2,94.2L93.2,94.2z"/>
		</g>
	</g>
	<g>
		<g>
			<path class="st1" d="M93.7,88.5c0.9,0,0.9-1.4,0-1.4C92.8,87.1,92.8,88.5,93.7,88.5L93.7,88.5z"/>
		</g>
	</g>
	<g>
		<g>
			<path class="st1" d="M95,86.3c0.9,0,0.9-1.4,0-1.4S94.1,86.3,95,86.3L95,86.3z"/>
		</g>
	</g>
	<g>
		<g>
			<path class="st1" d="M96.2,83.9c0.6,0,0.6-0.9,0-0.9S95.6,83.9,96.2,83.9L96.2,83.9z"/>
		</g>
	</g>
	<g>
		<g>
			<path class="st1" d="M95.9,82.4c0.7,0,0.7-1.1,0-1.1C95.2,81.3,95.2,82.4,95.9,82.4L95.9,82.4z"/>
		</g>
	</g>
	<g>
		<g>
			<path class="st1" d="M93.3,76.9c0.4,0,0.4-0.7,0-0.7C92.9,76.2,92.9,76.9,93.3,76.9L93.3,76.9z"/>
		</g>
	</g>
	<g>
		<g>
			<path class="st1" d="M92.3,74.3c0.7,0,0.7-1.1,0-1.1C91.6,73.2,91.6,74.3,92.3,74.3L92.3,74.3z"/>
		</g>
	</g>
	<g>
		<g>
			<path class="st1" d="M91.6,72.5c0.3,0,0.3-0.5,0-0.5C91.3,72,91.3,72.5,91.6,72.5L91.6,72.5z"/>
		</g>
	</g>
	<g>
		<g>
			<path class="st1" d="M90.1,69.6c1.4,0,1.4-2.1,0-2.1C88.8,67.4,88.8,69.6,90.1,69.6L90.1,69.6z"/>
		</g>
	</g>
	<g>
		<g>
			<path class="st1" d="M86.2,67.6c1.1,0,1.1-1.6,0-1.6C85.2,66,85.2,67.6,86.2,67.6L86.2,67.6z"/>
		</g>
	</g>
	<g>
		<g>
			<path class="st1" d="M77.6,72.3c1.1,0,1.1-1.7,0-1.7C76.5,70.6,76.5,72.3,77.6,72.3L77.6,72.3z"/>
		</g>
	</g>
	<g>
		<g>
			<path class="st1" d="M75.9,76.1c0.7,0,0.7-1,0-1C75.2,75,75.2,76.1,75.9,76.1L75.9,76.1z"/>
		</g>
	</g>
	<g>
		<g>
			<path class="st1" d="M74.5,74.8c0.3,0,0.3-0.4,0-0.4S74.2,74.8,74.5,74.8L74.5,74.8z"/>
		</g>
	</g>
	<g>
		<g>
			<path class="st1" d="M75.7,79.5c0.5,0,0.5-0.8,0-0.8C75.2,78.8,75.2,79.5,75.7,79.5L75.7,79.5z"/>
		</g>
	</g>
	<g>
		<g>
			<path class="st1" d="M75.5,83.6L75.5,83.6c-0.4,0.2-0.4,0.6-0.1,0.8h0.1C76.4,84.8,76.4,83.1,75.5,83.6L75.5,83.6z"/>
		</g>
	</g>
	<g>
		<g>
			<path class="st1" d="M78.6,91.3c0.2,0,0.2-0.4,0-0.4S78.4,91.3,78.6,91.3L78.6,91.3z"/>
		</g>
	</g>
	<g>
		<g>
			<path class="st1" d="M74.3,96c0.6,0,0.6-0.9,0-0.9C73.7,95.1,73.7,96,74.3,96L74.3,96z"/>
		</g>
	</g>
	<g>
		<g>
			<path class="st1" d="M78.3,101.6c0.6,0,0.6-1,0-1C77.7,100.7,77.7,101.6,78.3,101.6L78.3,101.6z"/>
		</g>
	</g>
	<g>
		<g>
			<path class="st1" d="M67.9,119.7L67.9,119.7c-0.3,0.4-0.1,1,0.4,1s0.7-0.6,0.4-0.9l0,0C68.5,119.4,68,119.4,67.9,119.7
				L67.9,119.7z"/>
		</g>
	</g>
	<g>
		<g>
			<path class="st1" d="M63.1,109.1c0-0.1,0-0.1-0.1-0.2c-0.2-0.4-0.7-0.4-0.9,0c0,0.1,0,0.1-0.1,0.2C61.8,110,63.4,110,63.1,109.1
				L63.1,109.1z"/>
		</g>
	</g>
	<g>
		<g>
			<path class="st1" d="M61,100.6L61,100.6c0.4-1.4-2-1.4-1.6-0.1v0.1C59.7,101.4,60.8,101.4,61,100.6L61,100.6z"/>
		</g>
	</g>
	<g>
		<g>
			<path class="st1" d="M60,94.2c0.3-0.1,0.5-0.3,0.6-0.6c0.1-0.4-0.2-0.8-0.7-0.7c-0.3,0.1-0.5,0.3-0.6,0.6
				C59.1,93.8,59.6,94.3,60,94.2L60,94.2z"/>
		</g>
	</g>
	<g>
		<g>
			<path class="st1" d="M61.1,85.5C61.1,85.5,61.2,85.5,61.1,85.5c0.4-0.2,0.4-0.8,0.1-1h-0.1c-0.4-0.2-0.9,0-0.9,0.5
				S60.7,85.7,61.1,85.5L61.1,85.5z"/>
		</g>
	</g>
	<g>
		<g>
			<path class="st1" d="M62.6,80.3c0.7,0,0.7-1.1,0-1.1C61.9,79.2,61.9,80.3,62.6,80.3L62.6,80.3z"/>
		</g>
	</g>
	<g>
		<g>
			<path class="st1" d="M67.1,69.7c0-0.1,0-0.2,0-0.3c0-0.2-0.2-0.4-0.4-0.5c-0.1,0-0.2,0-0.3,0C66.2,69,66,69.2,66,69.4
				c0,0.1,0,0.2,0,0.3C66.2,70.4,67.1,70.4,67.1,69.7L67.1,69.7z"/>
		</g>
	</g>
	<g>
		<g>
			<path class="st1" d="M64.4,77c-0.1-0.1-0.2-0.1-0.4-0.1c-0.6,0-0.6,0.9,0,0.9c0.2,0,0.3,0,0.4-0.1C64.7,77.5,64.7,77.2,64.4,77
				L64.4,77z"/>
		</g>
	</g>
	<g>
		<g>
			<path class="st1" d="M73.7,63.4c0.7,0,0.7-1.1,0-1.1C73,62.4,73,63.4,73.7,63.4L73.7,63.4z"/>
		</g>
	</g>
	<g>
		<g>
			<path class="st1" d="M69.9,66.3c0.6,0,0.6-0.9,0-0.9C69.3,65.5,69.3,66.3,69.9,66.3L69.9,66.3z"/>
		</g>
	</g>
	<g>
		<g>
			<path class="st1" d="M79.3,58.6c0.8,0,0.8-1.2,0-1.2C78.5,57.4,78.5,58.6,79.3,58.6L79.3,58.6z"/>
		</g>
	</g>
	<g>
		<g>
			<path class="st1" d="M85.9,54.4c0.9,0,0.9-1.4,0-1.4C85,52.9,85,54.4,85.9,54.4L85.9,54.4z"/>
		</g>
	</g>
	<g>
		<g>
			<path class="st1" d="M97.4,50.1c0.4,0,0.4-0.6,0-0.6C97,49.6,97,50.1,97.4,50.1L97.4,50.1z"/>
		</g>
	</g>
	<g>
		<g>
			<path class="st1" d="M102.6,51.1c0.6,0,0.6-0.9,0-0.9C102,50.2,102,51.1,102.6,51.1L102.6,51.1z"/>
		</g>
	</g>
	<g>
		<g>
			<path class="st1" d="M114.2,52.7c0.6,0,0.6-1,0-1S113.6,52.7,114.2,52.7L114.2,52.7z"/>
		</g>
	</g>
	<g>
		<g>
			<path class="st1" d="M110,50.6c0.2,0,0.2-0.3,0-0.3S109.8,50.6,110,50.6L110,50.6z"/>
		</g>
	</g>
	<g>
		<g>
			<path class="st1" d="M125.7,57.1c0.8,0,0.8-1.2,0-1.2C124.9,55.9,124.9,57.1,125.7,57.1L125.7,57.1z"/>
		</g>
	</g>
	<g>
		<g>
			<path class="st1" d="M134.5,61.4C134.4,61.4,134.4,61.4,134.5,61.4c-0.1-0.1-0.2-0.1-0.2-0.1s-0.1,0-0.1,0.1
				c-0.2,0.2-0.2,0.6,0.2,0.6C134.6,62,134.7,61.6,134.5,61.4L134.5,61.4z"/>
		</g>
	</g>
	<g>
		<g>
			<path class="st1" d="M138.7,68c0.6,0,0.6-1,0-1C138.1,67,138.1,68,138.7,68L138.7,68z"/>
		</g>
	</g>
	<g>
		<g>
			<path class="st1" d="M141.9,76.8c1.1,0,1.1-1.7,0-1.7C140.9,75.1,140.9,76.8,141.9,76.8L141.9,76.8z"/>
		</g>
	</g>
	<g>
		<g>
			<path class="st1" d="M146.6,86.8c1.1,0,1.1-1.7,0-1.7C145.5,85.1,145.5,86.8,146.6,86.8L146.6,86.8z"/>
		</g>
	</g>
	<g>
		<g>
			<path class="st1" d="M144.3,76.4c-0.6-0.1-1,0.7-0.4,1C144.6,77.8,145.1,76.6,144.3,76.4L144.3,76.4z"/>
		</g>
	</g>
	<g>
		<g>
			<path class="st1" d="M148.1,89.3c0-0.1,0-0.1-0.1-0.2c0-0.1-0.2-0.1-0.2,0s0,0.1-0.1,0.2C147.7,89.6,148.2,89.6,148.1,89.3
				L148.1,89.3z"/>
		</g>
	</g>
	<g>
		<g>
			<path class="st1" d="M147.6,96.5L147.6,96.5c-0.3,0.4-0.3,0.7,0,1c0,0,0,0,0,0.1c0.4,0.5,1.3,0.1,1.3-0.5
				C148.9,96.4,148.1,96,147.6,96.5L147.6,96.5z"/>
		</g>
	</g>
	<g>
		<g>
			<path class="st1" d="M148,90c1,0,1-1.6,0-1.6C146.9,88.4,146.9,90,148,90L148,90z"/>
		</g>
	</g>
	<g>
		<g>
			<path class="st1" d="M147,106.1c0.6,0,0.6-1,0-1C146.3,105.2,146.3,106.1,147,106.1L147,106.1z"/>
		</g>
	</g>
	<g>
		<g>
			<path class="st1" d="M143.7,112.9c0.8,0,0.8-1.3,0-1.3C142.9,111.7,142.9,112.9,143.7,112.9L143.7,112.9z"/>
		</g>
	</g>
	<g>
		<g>
			<path class="st1" d="M139.4,120.4C139.4,120.4,139.5,120.4,139.4,120.4c0.4-0.3,0.4-0.7,0.1-0.9c0,0,0,0-0.1-0.1
				c-0.4-0.2-0.8,0.1-0.8,0.5C138.6,120.3,139.1,120.6,139.4,120.4L139.4,120.4z"/>
		</g>
	</g>
	<g>
		<g>
			<path class="st1" d="M136.3,125.2c0.9,0,0.9-1.4,0-1.4C135.4,123.9,135.4,125.2,136.3,125.2L136.3,125.2z"/>
		</g>
	</g>
	<g>
		<g>
			<path class="st1" d="M133.3,126.8c0.6,0,0.6-0.9,0-0.9S132.7,126.8,133.3,126.8L133.3,126.8z"/>
		</g>
	</g>
	<g>
		<g>
			<path class="st1" d="M131.5,123.3c0-0.1,0-0.2-0.1-0.3c-0.1-0.1-0.2-0.1-0.3,0s-0.1,0.2-0.1,0.3
				C131.1,123.6,131.5,123.6,131.5,123.3L131.5,123.3z"/>
		</g>
	</g>
	<g>
		<g>
			<path class="st1" d="M127.1,132.8c0-0.2,0-0.4-0.1-0.6c-0.2-0.9-1.6-0.4-1.2,0.5c0.1,0.1,0.2,0.3,0.2,0.4
				C126.3,133.5,127.1,133.4,127.1,132.8L127.1,132.8z"/>
		</g>
	</g>
	<g>
		<g>
			<path class="st1" d="M118.4,135.3l0.1,0.1c0.2,0.4,0.8,0.4,1,0l0.1-0.1c0.3-0.5-0.1-1.1-0.6-1.1S118.2,134.9,118.4,135.3
				L118.4,135.3z"/>
		</g>
	</g>
	<g>
		<g>
			<path class="st1" d="M115.1,137.1c-0.1-0.6-0.8-0.6-0.9,0C114,137.8,115.3,137.9,115.1,137.1L115.1,137.1z"/>
		</g>
	</g>
	<g>
		<g>
			<path class="st1" d="M106,138.6c0.7,0,0.7-1.1,0-1.1C105.3,137.4,105.3,138.6,106,138.6L106,138.6z"/>
		</g>
	</g>
	<g>
		<g>
			<path class="st1" d="M83.5,69.5c1.1,0,1.1-1.6,0-1.6C82.5,67.9,82.4,69.5,83.5,69.5L83.5,69.5z"/>
		</g>
	</g>
	<g>
		<g>
			<path class="st1" d="M77.5,74.8c0.6,0,0.6-1,0-1C76.8,73.8,76.8,74.8,77.5,74.8L77.5,74.8z"/>
		</g>
	</g>
	<g>
		<g>
			<path class="st1" d="M77,87C77,87,77,86.9,77,87c-0.3-0.4-1-0.3-1,0.2s0.7,0.6,0.9,0.3l0,0C77.1,87.3,77.1,87.1,77,87L77,87z"/>
		</g>
	</g>
	<g>
		<g>
			<path class="st1" d="M87.5,69L87.5,69c-0.1-0.6-0.7-0.7-1.1-0.4c-0.3,0.3-0.2,1,0.3,1.1h0.1C87.2,69.8,87.6,69.4,87.5,69L87.5,69
				z"/>
		</g>
	</g>
	<g>
		<g>
			<path class="st1" d="M89.4,71L89.4,71c-0.2-0.4-0.8-0.4-1-0.1V71c-0.2,0.4,0,0.9,0.5,0.9S89.6,71.4,89.4,71L89.4,71z"/>
		</g>
	</g>
	<g>
		<g>
			<path class="st1" d="M130.7,106.2c1,0,1-1.5,0-1.5S129.7,106.2,130.7,106.2L130.7,106.2z"/>
		</g>
	</g>
	<g>
		<g>
			<path class="st1" d="M125.7,119c0.9,0,0.9-1.4,0-1.4C124.8,117.6,124.8,119,125.7,119L125.7,119z"/>
		</g>
	</g>
	<g>
		<g>
			<path class="st1" d="M87.3,69.3L87.3,69.3c0.3-1.4-1.9-1.4-1.6-0.1v0.1C85.9,70.1,87.1,70.1,87.3,69.3L87.3,69.3z"/>
		</g>
	</g>
	<g>
		<g>
			<path class="st2" d="M110.8,104.1c0.4,0,0.4-0.6,0-0.6C110.3,103.4,110.3,104.1,110.8,104.1L110.8,104.1z"/>
		</g>
	</g>
	<g>
		<g>
			<path class="st2" d="M111.8,104.8c0.8,0,0.8-1.3,0-1.3C110.9,103.5,110.9,104.8,111.8,104.8L111.8,104.8z"/>
		</g>
	</g>
	<g>
		<g>
			<path class="st2" d="M118.9,97.7c0.8,0,0.8-1.2,0-1.2S118.1,97.7,118.9,97.7L118.9,97.7z"/>
		</g>
	</g>
	<g>
		<g>
			<path class="st2" d="M112.5,94.6c0.6,0,0.6-1,0-1S111.9,94.6,112.5,94.6L112.5,94.6z"/>
		</g>
	</g>
	<g>
		<g>
			<path class="st2" d="M107.8,97c0.6,0,0.6-0.9,0-0.9C107.2,96.1,107.2,97,107.8,97L107.8,97z"/>
		</g>
	</g>
	<g>
		<g>
			<path class="st2" d="M104.6,97.7c0.9,0,0.9-1.5,0-1.5C103.6,96.3,103.6,97.7,104.6,97.7L104.6,97.7z"/>
		</g>
	</g>
</g>
</svg>
