<?xml version="1.0" standalone="no"?>
<!DOCTYPE svg PUBLIC "-//W3C//DTD SVG 20010904//EN"
 "http://www.w3.org/TR/2001/REC-SVG-20010904/DTD/svg10.dtd">
<svg version="1.0" xmlns="http://www.w3.org/2000/svg"
 width="500.000000pt" height="500.000000pt" viewBox="0 0 500.000000 500.000000"
 preserveAspectRatio="xMidYMid meet">
<metadata>
Created by potrace 1.11, written by Peter Selinger 2001-2013
</metadata>
<g transform="translate(0.000000,500.000000) scale(0.100000,-0.100000)"
fill="#000000" stroke="none">
<path d="M1631 4970 c-81 -17 -180 -74 -234 -135 -28 -32 -76 -118 -71 -127 3
-4 1 -8 -3 -8 -8 0 -12 -19 -14 -72 0 -25 -5 -23 -42 17 -17 19 -38 35 -44 35
-7 0 -13 4 -13 9 0 13 -110 41 -162 41 -24 0 -67 -7 -94 -15 -27 -8 -50 -15
-52 -15 -25 -2 -110 -57 -155 -102 -99 -98 -145 -233 -118 -348 5 -24 9 -46 7
-47 -1 -1 -18 2 -37 8 -40 12 -183 14 -202 2 -6 -4 -21 -9 -32 -10 -54 -9
-148 -85 -202 -164 -135 -199 -129 -402 17 -535 35 -32 101 -76 120 -79 8 -2
17 -4 20 -4 3 -1 11 -5 19 -10 11 -7 10 -14 -7 -38 -50 -71 -154 -290 -196
-414 -39 -117 -70 -238 -82 -319 -1 -14 -6 -47 -10 -75 -12 -79 -6 -509 6
-535 2 -3 4 -12 5 -20 4 -39 41 -203 52 -230 3 -8 8 -26 10 -39 2 -13 11 -37
19 -52 7 -15 16 -36 18 -46 13 -64 115 -269 194 -390 39 -59 62 -104 66 -134
4 -24 16 -60 26 -79 10 -19 23 -44 29 -56 5 -11 35 -43 65 -71 l56 -50 41
-137 c59 -200 64 -251 31 -313 -20 -37 -14 -41 53 -38 111 4 156 -42 156 -159
0 -49 5 -68 20 -85 29 -31 52 -31 249 -3 25 3 90 5 145 5 81 -1 112 -6 162
-26 47 -19 64 -22 72 -13 9 11 25 107 22 131 -1 6 -3 28 -5 51 -2 23 -5 45 -8
50 -3 5 -9 29 -13 53 -7 42 -6 43 16 35 13 -4 33 -9 44 -10 11 -2 44 -9 74
-15 29 -5 56 -8 59 -5 3 3 10 2 16 -3 6 -5 39 -11 74 -13 34 -2 62 -5 62 -8 0
-13 357 3 445 20 28 5 64 12 80 15 17 4 39 8 50 9 11 2 20 4 20 6 0 1 9 3 20
5 39 6 200 56 212 67 7 6 13 8 13 5 0 -18 360 162 368 184 2 5 8 9 14 9 21 0
202 145 301 243 102 100 229 250 250 294 6 13 14 23 19 23 4 0 8 4 8 10 0 5
17 36 37 67 42 66 110 202 140 283 35 91 36 94 40 114 2 11 8 25 14 33 6 7 8
13 5 13 -4 0 -2 8 3 18 5 9 12 31 15 47 3 17 15 73 25 125 25 120 32 200 33
375 1 165 -6 246 -33 375 -10 52 -22 107 -25 122 -3 14 -13 50 -24 80 -10 29
-16 56 -14 60 3 5 1 8 -5 8 -5 0 -13 14 -16 32 -4 17 -21 61 -38 97 -17 36
-31 68 -32 71 -3 14 -72 142 -101 190 -27 44 -35 67 -35 110 -2 57 -5 52 69
108 12 9 31 34 43 55 l20 38 87 -5 c48 -2 102 -5 119 -5 34 0 159 -16 223 -27
49 -9 293 -11 305 -3 6 3 26 7 45 7 34 1 119 17 150 29 8 3 24 7 35 9 55 8
170 79 182 112 3 9 11 23 17 31 5 7 11 18 12 25 1 6 4 25 7 43 3 17 2 34 -1
38 -3 3 -8 18 -10 33 -7 55 -87 191 -141 241 -30 27 -113 68 -156 76 -47 9
-49 10 -62 18 -7 5 -13 6 -13 3 0 -9 -41 25 -90 75 -85 87 -130 99 -228 60
-30 -12 -57 -19 -62 -16 -5 3 -19 22 -30 43 -44 77 -62 81 -280 73 -69 -2
-142 15 -160 38 -8 10 -41 29 -110 63 -51 25 -80 33 -132 34 -68 3 -198 -25
-225 -48 -7 -6 -13 -8 -13 -4 0 3 -16 0 -35 -8 -20 -9 -38 -15 -40 -16 -3 0
-6 0 -7 -1 -34 -11 -170 19 -183 41 -5 7 -84 38 -125 47 -69 17 -201 16 -228
-1 -7 -4 -12 -5 -12 -2 0 5 -76 -23 -151 -57 -41 -19 -60 -22 -73 -15 -24 14
-138 18 -153 5 -7 -5 -13 -7 -13 -3 0 12 -58 -23 -72 -43 -8 -11 -26 -23 -40
-26 -24 -6 -25 -5 -21 27 14 111 -18 195 -111 291 -31 31 -60 57 -65 57 -5 0
-14 7 -21 15 -6 8 -15 14 -18 13 -4 -1 -24 6 -45 15 -48 21 -148 29 -206 17z
m875 -994 c138 -67 230 -92 400 -110 71 -8 143 -17 159 -21 17 -4 39 -8 51 -9
33 -4 49 -17 33 -26 -7 -5 -14 -17 -15 -27 -1 -10 -5 -36 -8 -58 -2 -22 -6
-40 -7 -40 -6 0 -6 -96 1 -100 4 -3 6 -13 3 -23 -2 -10 7 -46 21 -80 13 -34
21 -62 16 -62 -18 0 -108 -207 -101 -234 1 -4 -2 -13 -6 -20 -5 -6 -8 -47 -8
-91 1 -90 -5 -100 -67 -110 -21 -4 -40 -11 -44 -16 -3 -5 -11 -9 -18 -9 -8 0
-40 -12 -72 -27 -33 -15 -61 -27 -64 -28 -3 -1 -22 -9 -43 -18 -20 -9 -41 -15
-45 -14 -4 1 -7 25 -8 52 0 28 -7 64 -16 80 -14 28 -14 32 3 60 34 55 19 145
-32 192 -29 26 -95 51 -124 47 -16 -2 -50 17 -100 59 -30 25 -119 77 -131 77
-8 0 -14 4 -14 9 0 5 -18 16 -41 25 -68 28 -78 44 -114 186 -2 8 -4 16 -5 18
-2 1 -4 11 -5 22 -1 11 -3 21 -5 23 -1 1 -3 9 -5 17 -2 8 -7 26 -10 40 -18 71
-17 82 2 72 10 -5 26 -8 36 -7 9 2 17 -1 17 -6 0 -17 123 2 175 27 46 21 113
88 128 127 8 21 25 21 63 3z"/>
</g>
</svg>
